<svg width="646" height="336" viewBox="0 0 646 336" fill="none" xmlns="http://www.w3.org/2000/svg">
<path d="M641.225 240.344C641.194 240.459 640.101 244.546 639.261 246.999C619.324 307.621 552.044 342.163 485.48 324.621C434.225 311.114 397.82 270.525 389.507 224.001H402.99C414.326 261.194 448.394 294.303 490.543 305.411C547.556 320.436 611.542 293.147 629.102 244.26C630.005 241.806 631.14 237.683 631.14 237.683L631.142 237.683C645.101 184.706 601.698 125.15 542.179 109.465C482.659 93.7788 415.539 124.21 401.578 177.188C397.503 192.649 398.315 208.671 402.987 224H389.504C386.632 207.928 387.113 191.147 391.492 174.53C408.548 109.812 478.279 72.0802 547.241 90.2542C616.204 108.428 658.282 175.626 641.227 240.344L641.225 240.344Z" fill="black" fill-opacity="0.25"/>
<path d="M627.138 233.687C641.099 180.709 597.696 121.151 538.175 105.465C478.655 89.7792 411.536 120.211 397.574 173.188C393.5 188.65 394.311 204.672 398.983 220L385.501 220C382.629 203.928 383.11 187.148 387.489 170.531C404.545 105.812 474.276 68.0806 543.238 86.2546C612.2 104.429 654.279 171.626 637.223 236.345L627.138 233.687Z" fill="#999999"/>
<path d="M392.5 171.651C399.754 144.124 422.95 123.437 449.517 110.883C476.09 98.3269 507.709 96.4707 538.175 104.5C568.642 112.529 595.715 129.852 612.648 153.874C629.577 177.891 639.254 208.193 632 235.72C631.468 237.738 630.852 239.717 630.155 241.657L625.099 240.247C625.87 238.101 626.551 235.914 627.138 233.686C641.099 180.709 597.696 121.15 538.175 105.465C478.655 89.779 411.536 120.211 397.574 173.188C393.941 186.976 394.193 201.21 397.603 215H393.583C389.579 200.683 388.755 185.864 392.5 171.651Z" fill="#666666"/>
<path d="M632 235.72C648.591 172.763 609.546 108.801 542 91.0006C474.454 73.1998 408.982 109.116 392.39 172.074C388.606 186.435 387.699 200.945 389.355 215.001H384.719C382.77 200.465 383.562 185.432 387.489 170.531C404.545 105.813 474.276 68.0812 543.238 86.2552C612.2 104.429 654.279 171.627 637.223 236.345C636.63 238.597 635.973 240.816 635.254 243.001L630.267 241.657C630.893 239.705 631.472 237.725 632 235.72Z" fill="#666666"/>
<path d="M622.964 170.517C606.578 138.364 574.463 110.687 538.182 101.126C496.041 90.02 448.432 103.105 418.519 131.083C418.225 131.358 417.766 131.348 417.485 131.06C417.212 130.779 417.205 130.336 417.472 130.05C446.315 99.1931 493.53 78.8749 542.155 91.6893C584.02 102.722 613.008 134.587 626.397 169.037C626.751 169.95 626.326 170.974 625.437 171.384C624.515 171.809 623.425 171.422 622.964 170.517Z" fill="#D9D9D9"/>
<path d="M565.016 103.672C557.907 99.3951 542.298 94.2788 544.806 98.5078C547.313 102.737 580.977 119.848 582.05 117.252C583.392 114.007 573.902 109.019 565.016 103.672Z" fill="#E6E6E6"/>
<path d="M522.786 91.1936C525.567 89.207 529.904 90.3658 531.726 91.1936C535.037 92.187 541.361 94.7697 540.169 97.1536C538.977 99.5376 531.063 98.147 527.256 97.1536C524.607 95.9947 520.004 93.1802 522.786 91.1936Z" fill="#E6E6E6"/>
<g filter="url(#filter0_d_313_3)">
<path fill-rule="evenodd" clip-rule="evenodd" d="M436.478 204.175L245.442 117.783C234.74 112.943 229.113 101.068 232.145 89.7203L240.618 58.0061C242.934 49.337 249.893 42.684 258.657 40.7595L417.113 5.96483C430.611 3.00105 443.816 12.0186 445.968 25.6687L470.074 178.569C473.048 197.43 453.875 212.042 436.478 204.175ZM437.054 153.003C431.658 164.503 417.962 169.45 406.462 164.054C394.963 158.658 390.015 144.961 395.411 133.462C400.808 121.963 414.504 117.015 426.004 122.411C437.503 127.807 442.451 141.504 437.054 153.003Z" fill="#F3D8AB"/>
<path fill-rule="evenodd" clip-rule="evenodd" d="M250.387 106.849L441.422 193.241C450.121 197.175 459.707 189.868 458.221 180.438L434.115 27.5377C433.038 20.7126 426.436 13.2234 419.687 14.7053L261.231 49.5C256.849 50.4623 253.37 56.7692 252.212 61.1037L243.738 92.8179C242.222 98.4919 245.036 104.429 250.387 106.849ZM245.442 117.783L436.478 204.175C453.875 212.042 473.048 197.43 470.074 178.569L445.968 25.6689C443.816 12.0188 430.611 3.00123 417.113 5.96501L258.658 40.7597C249.893 42.6842 242.934 49.3372 240.618 58.0063L232.145 89.7205C229.113 101.068 234.74 112.943 245.442 117.783Z" fill="#FFF1D9" stroke="#D2B78A" stroke-width="4"/>
<path d="M297.798 57.116L394.899 38.1181C407.926 35.5694 420.548 44.079 423.07 57.111L435.152 119.532L417.5 115L393.5 127.5L390.478 151.152L292.519 112.257C282.468 108.266 276.328 98.0478 277.522 87.3005L278.554 78.019C279.712 67.5947 287.505 59.1299 297.798 57.116Z" fill="#FFECCC"/>
<path d="M292.308 67.2538L336.832 48.7998C342.152 46.5948 348.289 48.4799 351.453 53.2915L374.011 87.5908C378.314 94.1344 375.298 102.98 367.893 105.53L342.711 114.204C339.403 115.343 335.763 114.982 332.743 113.215L290.842 88.6964C282.284 83.6883 283.148 71.0504 292.308 67.2538Z" fill="#FFF4E2"/>
<path d="M406.038 164.96C418.037 170.59 432.329 165.428 437.96 153.428C443.591 141.429 438.428 127.137 426.428 121.506C414.429 115.875 400.137 121.038 394.506 133.037C388.875 145.037 394.038 159.329 406.038 164.96ZM443.391 155.977C436.353 170.976 418.488 177.43 403.489 170.391C388.489 163.353 382.036 145.488 389.075 130.489C396.113 115.489 413.978 109.036 428.977 116.074C443.976 123.113 450.43 140.978 443.391 155.977Z" fill="#F3D8AB" stroke="#D2B78A" stroke-width="2"/>
<path d="M262.591 101.756L270.69 58.3508C270.913 57.1568 270.565 55.9123 269.745 54.9668L263.786 48.0963C263.169 47.385 262.328 46.8934 261.401 46.7028L249.451 44.2452C248.008 43.9482 246.811 42.9309 246.307 41.5724L245.635 39.7594C244.575 36.9019 240.826 36.0556 238.727 38.2001L235.598 41.396L231.86 45.0851C229.972 46.9486 226.729 46.4939 225.332 44.1697L224.461 42.7219C223.159 40.5564 220.214 39.9823 218.265 41.5139L216.622 42.8044C214.664 44.3419 211.707 43.7566 210.413 41.5755L208.895 39.0182C207.832 37.2261 205.347 36.8506 203.872 38.2592C202.616 39.4581 200.566 39.3921 199.318 38.1126L197.084 35.8222C195.499 34.1965 192.904 34.0819 191.27 35.5655L182.534 43.496C180.761 45.1049 177.902 44.8146 176.4 42.873L166.476 30.042C165.04 28.1862 162.344 27.8246 160.546 29.2467L157.549 31.6169C155.589 33.1669 152.616 32.5791 151.324 30.3857L149.55 27.377C148.26 25.1879 145.295 24.5972 143.334 26.1385L131.067 35.7803C129.023 37.3865 125.921 36.6682 124.725 34.3123L117.816 20.6948C116.739 18.5714 114.065 17.7343 112.004 18.8752L106.376 21.9913C104.909 22.8032 103.054 22.6352 101.709 21.5686L90.9954 13.0741C89.562 11.9376 87.5627 11.8285 86.0731 12.8054L73.7442 20.8906C72.1041 21.9662 69.8733 21.7144 68.4533 20.2934L53.9271 5.75624C52.6397 4.46783 50.665 4.12659 49.0625 4.91558L7.14873 25.5515C4.833 26.6916 4.24622 29.6548 5.93865 31.6624L36.6519 68.0938C37.2717 68.8291 38.1288 69.3379 39.0753 69.5326L243.645 111.605C244.545 111.79 245.473 111.68 246.284 111.294L260.429 104.551C261.565 104.009 262.363 102.977 262.591 101.756Z" fill="#F3D8AB"/>
<path d="M8.50009 24.4991L268.509 80.7528L266.012 93.4679L6.44676 37.6974L4.00009 26.4991L8.50009 24.4991Z" fill="#DAC298"/>
<path d="M28 13.4995L271.538 65.4322L269.565 75.4806L12.4999 20.499L28 13.4995Z" fill="#DAC298"/>
<path d="M240.724 106.146L248.431 101.528C248.704 101.364 249.013 101.268 249.331 101.248L252.461 101.048C252.808 101.026 253.144 100.913 253.435 100.722L260.607 95.9909C261.056 95.6949 261.367 95.2306 261.469 94.7027L263.825 82.5728C264.132 80.9888 262.534 79.7113 261.057 80.3606L234.74 91.927C234.366 92.0916 233.95 92.1374 233.548 92.0581L52.4502 56.2935C51.718 56.149 50.9663 56.424 50.5003 57.007L44.9557 63.9447C44.0219 65.1131 44.6542 66.8556 46.12 67.1533L239.298 106.39C239.788 106.489 240.296 106.402 240.724 106.146Z" fill="#FFECCC"/>
<path d="M267.213 56.4461L262.019 50.3667C261.7 49.9934 261.255 49.7504 260.768 49.6842L245.386 47.5901C243.382 47.3173 242.286 49.8509 243.856 51.1249L263.123 66.7558C264.308 67.7169 266.089 67.0511 266.353 65.5486L267.663 58.0913C267.766 57.5033 267.601 56.8999 267.213 56.4461Z" fill="#FFECCC"/>
<path fill-rule="evenodd" clip-rule="evenodd" d="M86.0731 12.805L83.8581 9.43045C86.7893 7.50822 90.6581 7.73992 93.4283 9.93631L104.142 18.4308C104.177 18.4587 104.227 18.4809 104.287 18.4863C104.347 18.4918 104.388 18.4781 104.41 18.4659L110.039 15.3498L112.004 18.8748L106.376 21.9909C104.909 22.8028 103.054 22.6348 101.709 21.5682L90.9954 13.0737C89.562 11.9373 87.5628 11.8281 86.0731 12.805ZM53.9271 5.75585L56.7127 2.93288L71.2389 17.47C71.2696 17.5007 71.3207 17.5308 71.3936 17.5391C71.4663 17.5473 71.5099 17.5284 71.5292 17.5157L83.8581 9.43045L86.0731 12.805L73.7442 20.8903C72.1041 21.9658 69.8733 21.714 68.4533 20.293L53.9271 5.75585ZM112.004 18.8748L110.039 15.3498C114.044 13.1324 119.232 14.7238 121.359 18.9168L128.268 32.5342L124.725 34.3119L117.816 20.6944C116.739 18.571 114.065 17.7339 112.004 18.8748ZM124.725 34.3119L128.269 32.5342C128.277 32.5514 128.286 32.5616 128.302 32.5736C128.322 32.5893 128.358 32.6091 128.408 32.6206C128.458 32.6321 128.5 32.6304 128.527 32.6249C128.549 32.6204 128.564 32.6137 128.581 32.5999L140.849 22.9581C144.697 19.9336 150.439 21.0803 152.969 25.3716L154.742 28.3803C154.753 28.3983 154.764 28.4107 154.783 28.4237C154.806 28.4396 154.843 28.4572 154.89 28.4665C154.937 28.4759 154.977 28.4734 155.003 28.4676C155.025 28.4628 155.039 28.4559 155.054 28.4438L158.051 26.0736L160.525 29.2203L158.051 26.0736C161.591 23.2742 166.809 23.9947 169.605 27.6089L179.529 40.4399C179.554 40.4716 179.604 40.5124 179.699 40.522C179.793 40.5316 179.829 40.501 179.837 40.4939L188.573 32.5634C191.81 29.6253 196.837 29.8888 199.905 33.0342L197.084 35.8218C195.499 34.1961 192.904 34.0815 191.27 35.5651L182.534 43.4956C180.761 45.1046 177.902 44.8142 176.4 42.8726L166.476 30.0416C165.04 28.1858 162.344 27.8242 160.546 29.2463L157.549 31.6165C155.589 33.1665 152.616 32.5787 151.324 30.3853L149.55 27.3767C148.26 25.1875 145.295 24.5968 143.334 26.1381L131.067 35.7799C129.023 37.3861 125.921 36.6678 124.725 34.3119ZM201.666 34.84C205.024 32.2458 210.062 33.2163 212.308 37.0026L208.895 39.0179C207.832 37.2257 205.347 36.8502 203.872 38.2588C202.616 39.4577 200.566 39.3917 199.318 38.1122L197.084 35.8218L199.905 33.0342L201.666 34.84ZM216.622 42.804C214.664 44.3415 211.707 43.7562 210.413 41.5751L208.895 39.0179L212.308 37.0026L213.826 39.5599C213.836 39.5778 213.848 39.5903 213.867 39.6034C213.89 39.6192 213.926 39.6367 213.973 39.646C214.02 39.6553 214.06 39.6529 214.086 39.6471C214.108 39.6423 214.122 39.6354 214.137 39.6233L215.78 38.3329C219.607 35.3268 225.31 36.4427 227.862 40.6857L228.732 42.1335C228.745 42.1558 228.758 42.1685 228.778 42.1811C228.803 42.1972 228.844 42.2148 228.896 42.2221C228.948 42.2294 228.988 42.2232 229.01 42.2164C229.025 42.2115 229.033 42.2067 229.045 42.195L232.759 38.529L235.865 35.3571C239.993 31.1403 247.275 32.7706 249.366 38.4115L250.038 40.2243C250.038 40.224 250.038 40.224 250.038 40.2243C250.039 40.2263 250.046 40.2392 250.067 40.2576C250.094 40.28 250.133 40.302 250.185 40.3127L262.135 42.7703C263.919 43.1373 265.556 44.0866 266.769 45.4849L272.728 52.3553C274.344 54.2186 275.063 56.7177 274.608 59.1562L266.509 102.562C266.044 105.056 264.42 107.118 262.185 108.184L248.039 114.927C246.446 115.686 244.644 115.893 242.912 115.537L38.3416 73.4643C36.5189 73.0894 34.8508 72.107 33.6315 70.6606L2.91829 34.2292C-0.46634 30.2144 0.726512 24.2152 5.34899 21.9393L47.2627 1.30345C50.3917 -0.23705 54.2087 0.427051 56.7127 2.93287L53.9271 5.75585C52.6397 4.46744 50.665 4.1262 49.0625 4.91519L7.14874 25.5511C4.83302 26.6912 4.24624 29.6545 5.93867 31.662L36.6519 68.0934C37.2717 68.8287 38.1288 69.3375 39.0753 69.5322L243.645 111.605C244.545 111.789 245.473 111.68 246.284 111.293L260.429 104.55C261.565 104.009 262.363 102.977 262.591 101.756L270.69 58.3504C270.913 57.1564 270.565 55.9119 269.745 54.9664L263.786 48.0959C263.169 47.3846 262.328 46.893 261.401 46.7024L249.451 44.2448C248.008 43.9478 246.811 42.9305 246.307 41.5721L245.635 39.759C244.575 36.9015 240.826 36.0553 238.727 38.1997L235.598 41.3956L231.86 45.0847C229.972 46.9482 226.729 46.4935 225.332 44.1693L224.461 42.7216C223.159 40.556 220.214 39.9819 218.265 41.5135L216.622 42.804Z" fill="#D2B78A"/>
</g>
<g filter="url(#filter1_d_313_3)">
<path fill-rule="evenodd" clip-rule="evenodd" d="M334.5 328C393.871 328 442 279.871 442 220.5C442 161.129 393.871 113 334.5 113C275.129 113 227 161.129 227 220.5C227 279.871 275.129 328 334.5 328ZM389 243C406.121 243 420 229.121 420 212C420 194.879 406.121 181 389 181C371.879 181 358 194.879 358 212C358 229.121 371.879 243 389 243Z" fill="#999999"/>
<path fill-rule="evenodd" clip-rule="evenodd" d="M442 220.5C442 279.871 393.871 328 334.5 328C275.129 328 227 279.871 227 220.5C227 161.129 275.129 113 334.5 113C393.871 113 442 161.129 442 220.5ZM428 220.5C428 272.139 386.139 314 334.5 314C282.861 314 241 272.139 241 220.5C241 168.861 282.861 127 334.5 127C386.139 127 428 168.861 428 220.5Z" fill="white" stroke="#666666" stroke-width="4"/>
<path fill-rule="evenodd" clip-rule="evenodd" d="M326.091 306C371.84 306 425 255.889 425 214.635C425 173.381 371.84 135 326.091 135C280.342 135 255 185.111 255 226.365C255 267.618 280.342 306 326.091 306ZM389 243C406.121 243 420 229.121 420 212C420 194.879 406.121 181 389 181C371.879 181 358 194.879 358 212C358 229.121 371.879 243 389 243Z" fill="#D9D9D9"/>
<path d="M322.5 280.5C354.894 300.343 371.358 287.158 390.985 270.551C403.47 259.986 413.321 245.092 417.042 229.349C413.288 241.422 404.35 246.539 391.656 251.373C374.97 257.727 361.53 245.019 351.333 221.069C343.176 201.908 358.44 188.646 367.091 184.41C393.101 175.392 410.071 185.438 416.319 200.781C407.806 176.247 355.767 138.797 334 145C321.322 148.613 304.617 167.242 292 194.5C282.547 214.922 290.106 260.657 322.5 280.5Z" fill="#EEEEEE"/>
<path d="M320.989 156.301C300.735 172.115 305.182 185.672 311.047 202.044C316.912 218.416 331.099 233.204 348.262 234.592C350.928 234.807 354.083 234.393 357.516 233.481C355.337 229.788 353.276 225.632 351.333 221.068C343.176 201.908 358.44 188.645 367.091 184.409C381.619 179.372 393.326 180.283 401.921 184.742C398.707 176.652 392.099 166.899 382.702 157.38C372.008 146.548 341.243 140.487 320.989 156.301Z" fill="white"/>
<path d="M389 236C402.255 236 413 225.255 413 212C413 198.745 402.255 188 389 188C375.745 188 365 198.745 365 212C365 225.255 375.745 236 389 236ZM419 212C419 228.569 405.569 242 389 242C372.431 242 359 228.569 359 212C359 195.431 372.431 182 389 182C405.569 182 419 195.431 419 212Z" fill="#D9D9D9" stroke="#666666" stroke-width="2"/>
<path d="M269.532 251.594L258.424 208.859C258.119 207.684 257.276 206.705 256.131 206.197L247.818 202.509C246.957 202.127 245.987 202.039 245.067 202.26L233.205 205.112C231.772 205.457 230.256 205.044 229.223 204.028L227.844 202.672C225.671 200.536 221.918 201.362 220.928 204.195L219.453 208.418L217.637 213.345C216.719 215.834 213.59 216.8 211.338 215.29L209.935 214.349C207.836 212.942 204.926 213.673 203.812 215.888L202.873 217.754C201.754 219.977 198.828 220.704 196.73 219.279L194.27 217.609C192.546 216.438 190.137 217.154 189.4 219.056C188.773 220.674 186.889 221.485 185.215 220.857L182.22 219.733C180.094 218.935 177.696 219.933 176.847 221.971L172.307 232.861C171.386 235.071 168.675 236.022 166.49 234.903L152.055 227.503C149.967 226.433 147.373 227.251 146.349 229.302L144.643 232.721C143.527 234.957 140.586 235.687 138.484 234.251L135.6 232.281C133.502 230.847 130.568 231.572 129.447 233.8L122.438 247.74C121.27 250.062 118.156 250.73 116.073 249.105L104.033 239.712C102.156 238.248 99.3803 238.625 97.9993 240.534L94.2276 245.746C93.2448 247.104 91.494 247.74 89.8231 247.346L76.5158 244.207C74.7355 243.787 72.8792 244.538 71.9456 246.055L64.2192 258.612C63.1913 260.282 61.0648 261.002 59.1757 260.319L39.8498 253.329C38.137 252.71 36.2044 253.24 35.0889 254.635L5.91141 291.121C4.29936 293.137 5.02697 296.069 7.41192 297.168L50.6925 317.101C51.566 317.503 52.558 317.6 53.4976 317.374L256.564 268.558C257.457 268.343 258.25 267.85 258.82 267.156L268.761 255.042C269.56 254.069 269.844 252.796 269.532 251.594Z" fill="#D9D9D9"/>
<path d="M7.70792 288.565L263.656 228.98L267.294 243.077L13.2902 300.084L2.5 294.999L7.70792 288.565Z" fill="#999999"/>
<path d="M20.8798 272.427L260.159 215.488L262.612 224.949L12.0536 283.338L20.8798 272.427Z" fill="#999999"/>
<path d="M251.6 264.856L256.615 257.403C256.793 257.138 257.032 256.92 257.311 256.766L260.06 255.256C260.365 255.088 260.621 254.844 260.803 254.547L265.286 247.217C265.566 246.759 265.65 246.206 265.519 245.685L262.499 233.703C262.104 232.138 260.115 231.661 259.053 232.876L240.143 254.527C239.874 254.835 239.516 255.053 239.119 255.152L59.9813 299.707C59.2571 299.887 58.6934 300.455 58.5193 301.181L56.447 309.817C56.098 311.271 57.4106 312.58 58.864 312.227L250.413 265.683C250.898 265.565 251.322 265.27 251.6 264.856Z" fill="#EEEEEE"/>
<path d="M254.468 208.611L247.183 205.314C246.735 205.112 246.229 205.081 245.76 205.228L230.945 209.867C229.015 210.471 229.099 213.23 231.062 213.717L255.144 219.682C256.625 220.049 257.955 218.69 257.555 217.217L255.573 209.91C255.417 209.334 255.011 208.857 254.468 208.611Z" fill="#EEEEEE"/>
<path fill-rule="evenodd" clip-rule="evenodd" d="M71.9456 246.056L68.5069 243.942C70.3438 240.956 73.9446 239.523 77.3855 240.334L90.6927 243.473C90.7364 243.483 90.7909 243.482 90.8477 243.461C90.9044 243.441 90.9358 243.411 90.9506 243.391L94.7223 238.179L97.9994 240.535L94.2276 245.747C93.2449 247.105 91.494 247.741 89.8231 247.347L76.5158 244.208C74.7355 243.788 72.8792 244.538 71.9456 246.056ZM39.8499 253.33L41.1724 249.591L60.4982 256.58C60.539 256.595 60.5981 256.601 60.6676 256.577C60.7369 256.554 60.7683 256.518 60.7804 256.498L68.5069 243.942L71.9456 246.056L64.2192 258.612C63.1913 260.283 61.0648 261.003 59.1757 260.319L39.8499 253.33ZM97.9994 240.535L94.7223 238.179C97.4063 234.47 102.779 233.706 106.486 236.599L118.526 245.991L116.073 249.106L104.033 239.713C102.156 238.248 99.3803 238.626 97.9994 240.535ZM116.073 249.106L118.526 245.991C118.541 246.003 118.553 246.009 118.572 246.013C118.597 246.018 118.639 246.021 118.689 246.01C118.738 245.999 118.776 245.98 118.798 245.963C118.816 245.95 118.827 245.938 118.837 245.918L125.846 231.978C128.045 227.605 133.731 226.204 137.844 229.014L140.727 230.984C140.745 230.996 140.76 231.002 140.783 231.006C140.81 231.011 140.851 231.011 140.898 231C140.944 230.988 140.979 230.969 141.001 230.952C141.018 230.939 141.028 230.927 141.036 230.909L142.743 227.491L146.319 229.288L142.743 227.491C144.758 223.453 149.788 221.888 153.854 223.972L168.29 231.372C168.325 231.39 168.388 231.406 168.478 231.374C168.567 231.343 168.587 231.3 168.591 231.29L173.131 220.4C174.813 216.365 179.476 214.468 183.589 216.012L182.22 219.734C180.094 218.935 177.696 219.934 176.847 221.971L172.307 232.862C171.386 235.071 168.675 236.023 166.49 234.903L152.055 227.504C149.967 226.434 147.373 227.252 146.349 229.303L144.643 232.722C143.527 234.958 140.586 235.688 138.484 234.252L135.6 232.281C133.502 230.848 130.568 231.572 129.447 233.801L122.438 247.741C121.27 250.063 118.156 250.731 116.073 249.106ZM185.951 216.898C187.889 213.123 192.861 211.862 196.503 214.335L194.27 217.61C192.546 216.439 190.137 217.155 189.4 219.056C188.773 220.675 186.889 221.486 185.215 220.858L182.22 219.734L183.589 216.012L185.951 216.898ZM202.873 217.755C201.754 219.978 198.828 220.705 196.73 219.28L194.27 217.61L196.503 214.335L198.963 216.006C198.981 216.018 198.996 216.024 199.019 216.028C199.047 216.032 199.087 216.033 199.134 216.021C199.18 216.01 199.215 215.991 199.236 215.974C199.254 215.961 199.264 215.948 199.272 215.931L200.211 214.065C202.399 209.718 208.036 208.305 212.148 211.062L213.551 212.003C213.573 212.018 213.59 212.024 213.613 212.027C213.643 212.031 213.687 212.029 213.737 212.014C213.787 211.998 213.821 211.976 213.838 211.96C213.85 211.949 213.855 211.942 213.861 211.926L215.666 207.029L217.13 202.839C219.076 197.267 226.36 195.65 230.65 199.868L232.028 201.224C232.028 201.224 232.028 201.224 232.028 201.224C232.03 201.225 232.042 201.234 232.069 201.242C232.102 201.251 232.147 201.254 232.199 201.241L244.061 198.39C245.832 197.964 247.717 198.128 249.409 198.879L257.723 202.567C259.977 203.567 261.689 205.524 262.314 207.925L273.421 250.66C274.059 253.115 273.465 255.672 271.894 257.586L261.953 269.7C260.833 271.064 259.29 272.017 257.57 272.43L54.5038 321.246C52.6945 321.681 50.767 321.5 49.0488 320.709L5.76822 300.776C0.998647 298.579 -0.470013 292.641 2.74784 288.617L31.9253 252.13C34.1034 249.407 37.8411 248.386 41.1724 249.591L39.8499 253.33C38.137 252.711 36.2044 253.241 35.0889 254.636L5.91142 291.122C4.29937 293.138 5.02699 296.07 7.41193 297.168L50.6925 317.102C51.566 317.504 52.558 317.601 53.4976 317.375L256.564 268.559C257.457 268.344 258.25 267.851 258.82 267.156L268.761 255.043C269.56 254.07 269.844 252.797 269.532 251.595L258.424 208.86C258.119 207.684 257.276 206.705 256.131 206.198L247.818 202.51C246.957 202.128 245.987 202.04 245.067 202.261L233.205 205.113C231.772 205.457 230.256 205.045 229.223 204.029L227.844 202.673C225.671 200.537 221.918 201.363 220.928 204.196L219.453 208.419L217.637 213.346C216.719 215.835 213.59 216.801 211.338 215.291L209.935 214.35C207.836 212.943 204.926 213.674 203.812 215.889L202.873 217.755Z" fill="#666666"/>
</g>
<path d="M385.504 220.002C393.817 266.526 430.221 307.114 481.477 320.622C548.041 338.164 615.321 303.622 635.258 243L625.098 240.261C607.539 289.148 543.553 316.437 486.54 301.412C444.39 290.304 410.323 257.195 398.986 220.002L385.504 220.002Z" fill="#999999"/>
<path d="M575.195 295.991C548.622 308.548 515.967 314.029 485.5 306C455.033 297.971 428.997 277.022 412.064 253.001C403.876 241.384 397.334 228.413 393.583 215L397.603 215C407.297 254.195 442.507 289.807 486.537 301.41C543.554 316.436 607.545 289.142 625.099 240.248L630.155 241.657C621.356 266.167 599.813 284.358 575.195 295.991Z" fill="#666666"/>
<path d="M481.474 320.62C428.39 306.631 391.235 263.594 384.719 215L389.355 215C394.961 262.564 429.922 304.921 482.06 318.661C547.455 335.895 611.216 301.027 630.267 241.657L635.254 243C615.316 303.621 548.037 338.162 481.474 320.62Z" fill="#666666"/>
<path d="M404.164 242.321C420.456 274.313 449.728 297.25 486.007 306.811C528.148 317.917 575.757 304.831 605.669 276.853C605.963 276.578 606.423 276.588 606.704 276.877C606.977 277.157 606.984 277.601 606.716 277.887C577.874 308.743 530.658 329.062 482.033 316.247C440.171 305.215 414.032 278.101 400.73 243.801C400.376 242.888 400.8 241.86 401.689 241.45C402.611 241.026 403.703 241.416 404.164 242.321Z" fill="#D9D9D9"/>
<path d="M458.717 305.75C451.963 303.366 438.023 291.512 431.898 285.883C431.07 283.235 430.606 279.129 435.374 283.897C441.334 289.857 463.187 300.286 469.147 303.266C475.107 306.246 502.423 315.683 491.993 316.179C481.563 316.676 467.16 308.73 458.717 305.75Z" fill="#E6E6E6"/>
<g filter="url(#filter2_d_313_3)">
<path fill-rule="evenodd" clip-rule="evenodd" d="M113.446 47.4736L116.096 47.1212C118.395 46.8156 120.604 46.4288 123.129 45.9866C123.636 45.8978 124.156 45.8068 124.692 45.7138C127.714 45.189 131.23 44.6043 134.862 44.2904C142.387 43.6401 151.194 44.0696 160.403 48.5622C168.251 52.3909 174.719 57.4763 179.666 64.2887C184.519 70.9733 187.276 78.4568 189.021 86.1519C189.758 89.4035 189.992 92.2664 190.088 94.5243C190.112 95.0889 190.128 95.6414 190.14 96.1452C193.487 96.4493 198.431 97.2943 203.685 100.077L196.195 114.216C192.525 112.272 189.387 112.104 186.568 111.953C183.241 111.774 180.359 111.62 177.569 108.598C174.307 105.066 174.241 101.582 174.164 97.476C174.119 95.1261 174.071 92.5726 173.417 89.6898C170.532 76.9631 165.116 68.664 153.387 62.9421C144.317 58.517 135.515 60.0599 125.973 61.7323C123.442 62.1759 120.859 62.6287 118.205 62.9816C79.2034 82.4662 33.6329 123.618 21.2946 139.27C8.95637 154.923 28.9393 183.299 43.8009 186.508C49.6986 187.849 54.6233 187.726 58.7941 187.622C64.8604 187.47 69.3321 187.359 72.8841 191.852C76.1431 195.975 75.4374 199.578 74.5254 204.233C73.7601 208.141 72.8495 212.789 74.0149 219.109C76.5691 232.96 94.8737 264.911 112.493 254.345C113.432 253.782 114.36 253.225 115.278 252.675C160.128 225.789 180.094 213.82 213.102 172.795C220.411 163.711 224.781 146.771 217.27 134.667C210.388 123.579 207.727 120.325 196.195 114.216L203.685 100.077C209.954 103.398 215.144 106.621 219.783 111.253C224.228 115.693 227.484 120.784 230.864 126.23C237.163 136.379 238.034 147.775 236.554 157.315C235.083 166.803 231.089 175.963 225.568 182.825C190.767 226.078 168.802 239.245 123.631 266.323C122.672 266.898 121.702 267.479 120.721 268.067C111.476 273.611 101.67 273.446 93.3662 270.061C85.7952 266.974 79.7857 261.419 75.3842 256.211C66.7108 245.948 60.1214 231.995 58.2802 222.011C56.8497 214.253 57.5885 207.903 58.3434 203.652C54.1323 203.756 47.5476 203.758 40.3294 202.127C32.9788 200.515 26.5495 196.294 21.6418 191.926C16.5186 187.366 11.9039 181.63 8.39922 175.393C2.05125 164.097 -3.59679 145.002 8.72902 129.365C15.9517 120.202 31.4578 105.149 49.5745 90.2164C67.8338 75.1661 90.0305 59.1716 111.055 48.6683L113.446 47.4736Z" fill="#333333"/>
</g>
<g filter="url(#filter3_d_313_3)">
<path d="M151.65 116.413L158.582 110.818L169.772 124.681L162.841 130.276L151.65 116.413ZM139.124 115.077L146.055 109.482L151.65 116.413L137.787 127.603L132.192 120.672L139.124 115.077ZM155.909 135.871L162.841 130.276L168.436 137.208L161.504 142.803L154.573 148.398L148.978 141.467L155.909 135.871ZM112.734 124.931L126.597 113.74L132.192 120.672L125.261 126.267L118.329 131.862L112.734 124.931ZM147.641 153.993L154.573 148.398L160.168 155.33L146.305 166.52L140.71 159.589L147.641 153.993ZM82.0851 115.326L76.49 108.394L90.3532 97.2041L112.734 124.931L105.802 130.526L100.207 123.594L94.6119 116.662L89.0167 109.731L82.0851 115.326ZM139.373 172.115L146.305 166.52L168.685 194.247L154.822 205.437L149.227 198.505L156.158 192.91L150.563 185.978L144.968 179.047L139.373 172.115ZM110.061 149.984L116.992 144.389L128.183 158.252L121.251 163.847L110.061 149.984ZM80.7487 127.853L75.1535 120.921L82.0851 115.326L87.6803 122.258L80.7487 127.853ZM97.5341 148.648L104.466 143.052L110.061 149.984L103.129 155.579L97.5341 148.648ZM114.32 169.442L121.251 163.847L126.846 170.779L119.915 176.374L114.32 169.442ZM136.7 197.169L143.632 191.574L149.227 198.505L142.295 204.1L136.7 197.169ZM66.8855 139.043L80.7487 127.853L86.3438 134.784L79.4122 140.38L72.4806 145.975L66.8855 139.043ZM96.1977 161.174L103.129 155.579L114.32 169.442L107.388 175.038L96.1977 161.174ZM124.173 195.832L131.105 190.237L136.7 197.169L122.837 208.359L117.242 201.427L124.173 195.832ZM54.3587 137.707L61.2903 132.111L66.8855 139.043L59.9539 144.638L54.3587 137.707ZM82.3345 172.365L89.2661 166.769L100.456 180.633L93.5248 186.228L84.1995 174.675L82.3345 172.365ZM115.905 213.954L122.837 208.359L128.432 215.291L121.5 220.886L115.905 213.954ZM27.9688 147.56L48.7636 130.775L54.3587 137.707L40.4955 148.897L57.281 169.692L50.3494 175.287L27.9688 147.56ZM69.8077 171.028L76.7393 165.433L82.3345 172.365L80.0239 174.23L69.8077 171.028ZM92.1883 198.755L86.5932 191.823L93.5248 186.228L99.1199 193.159L92.1883 198.755ZM114.569 226.481L121.5 220.886L127.096 227.817L106.301 244.603L83.9203 216.876L90.8519 211.281L107.637 232.076L114.569 226.481ZM57.281 169.692L64.2126 164.097L69.8077 171.028L62.8761 176.623L57.281 169.692ZM90.8519 211.281L85.2567 204.35L92.1883 198.755L97.7835 205.686L90.8519 211.281Z" fill="#281384"/>
<path d="M143.382 134.535L150.314 128.94L155.909 135.871L148.978 141.467L143.382 134.535ZM118.329 131.862L125.261 126.267L130.856 133.199L116.992 144.389L111.397 137.457L118.329 131.862ZM128.183 158.252L135.114 152.657L140.71 159.589L133.778 165.184L128.183 158.252ZM87.6803 122.258L94.6119 116.662L100.207 123.594L93.2754 129.189L87.6803 122.258ZM98.8706 136.121L105.802 130.526L111.397 137.457L104.466 143.052L98.8706 136.121ZM126.846 170.779L133.778 165.184L139.373 172.115L132.441 177.71L126.846 170.779ZM138.037 184.642L144.968 179.047L150.563 185.978L143.632 191.574L138.037 184.642ZM79.4122 140.38L86.3438 134.784L91.939 141.716L85.0074 147.311L79.4122 140.38ZM90.6025 154.243L97.5341 148.648L103.129 155.579L96.1977 161.174L90.6025 154.243ZM107.388 175.038L114.32 169.442L119.915 176.374L112.983 181.969L107.388 175.038ZM118.578 188.901L125.51 183.306L131.105 190.237L124.173 195.832L118.578 188.901ZM71.1442 158.501L85.0074 147.311L90.6025 154.243L76.7393 165.433L71.1442 158.501ZM89.2661 166.769L96.1977 161.174L107.388 175.038L100.456 180.633L89.2661 166.769ZM99.1199 193.159L112.983 181.969L118.578 188.901L104.715 200.091L99.1199 193.159ZM64.2126 164.097L53.0223 150.233L59.9539 144.638L65.549 151.57L71.1442 158.501L64.2126 164.097ZM97.7835 205.686L104.715 200.091L110.31 207.023L103.379 212.618L97.7835 205.686ZM108.974 219.549L115.905 213.954L121.5 220.886L114.569 226.481L108.974 219.549Z" fill="#E366D6"/>
<path d="M132.192 120.672L137.787 127.603L151.65 116.413L162.841 130.276L155.909 135.871L150.314 128.94L143.382 134.535L136.451 140.13L142.046 147.062L135.114 152.657L128.183 158.252L116.992 144.389L130.856 133.199L125.261 126.267L132.192 120.672ZM142.046 147.062L148.978 141.467L154.573 148.398L147.641 153.993L142.046 147.062ZM133.778 165.184L140.71 159.589L146.305 166.52L139.373 172.115L133.778 165.184ZM82.0851 115.326L89.0167 109.731L94.6119 116.662L87.6803 122.258L82.0851 115.326ZM104.466 143.052L111.397 137.457L116.992 144.389L110.061 149.984L104.466 143.052ZM121.251 163.847L128.183 158.252L133.778 165.184L126.846 170.779L121.251 163.847ZM143.632 191.574L150.563 185.978L156.158 192.91L149.227 198.505L143.632 191.574ZM80.7487 127.853L87.6803 122.258L93.2754 129.189L98.8706 136.121L104.466 143.052L97.5341 148.648L90.6025 154.243L85.0074 147.311L91.939 141.716L86.3438 134.784L80.7487 127.853ZM119.915 176.374L126.846 170.779L132.441 177.71L138.037 184.642L143.632 191.574L136.7 197.169L131.105 190.237L125.51 183.306L118.578 188.901L112.983 181.969L119.915 176.374ZM76.7393 165.433L90.6025 154.243L96.1977 161.174L89.2661 166.769L82.3345 172.365L76.7393 165.433ZM100.456 180.633L107.388 175.038L112.983 181.969L99.1199 193.159L93.5248 186.228L100.456 180.633ZM59.9539 144.638L66.8855 139.043L72.4806 145.975L65.549 151.57L59.9539 144.638ZM110.31 207.023L117.242 201.427L122.837 208.359L115.905 213.954L110.31 207.023ZM57.281 169.692L40.4955 148.897L54.3587 137.707L59.9539 144.638L53.0223 150.233L64.2126 164.097L57.281 169.692ZM64.2126 164.097L71.1442 158.501L76.7393 165.433L69.8077 171.028L64.2126 164.097ZM92.1883 198.755L99.1199 193.159L104.715 200.091L97.7835 205.686L92.1883 198.755ZM90.8519 211.281L97.7835 205.686L103.379 212.618L108.974 219.549L114.569 226.481L107.637 232.076L90.8519 211.281Z" fill="#7F13D9"/>
<path d="M142.046 147.062L136.451 140.13L143.382 134.535L148.978 141.467L142.046 147.062ZM135.114 152.657L142.046 147.062L147.641 153.993L140.71 159.589L135.114 152.657ZM105.802 130.526L112.734 124.931L118.329 131.862L111.397 137.457L105.802 130.526ZM93.2754 129.189L100.207 123.594L105.802 130.526L98.8706 136.121L93.2754 129.189ZM132.441 177.71L139.373 172.115L144.968 179.047L138.037 184.642L132.441 177.71ZM72.4806 145.975L79.4122 140.38L85.0074 147.311L71.1442 158.501L65.549 151.57L72.4806 145.975ZM104.715 200.091L118.578 188.901L124.173 195.832L117.242 201.427L110.31 207.023L104.715 200.091ZM82.3345 172.365L84.1995 174.675L81.889 176.54L80.0239 174.23L82.3345 172.365ZM103.379 212.618L110.31 207.023L115.905 213.954L108.974 219.549L103.379 212.618Z" fill="#E89F2B"/>
<path d="M130.606 76.16L137.538 70.5648L143.133 77.4964L136.201 83.0916L130.606 76.16ZM192.153 152.408L199.085 146.812L204.68 153.744L197.748 159.339L192.153 152.408ZM122.338 94.2819L102.88 98.5406L97.2848 91.609L125.011 69.2284L130.606 76.16L116.743 87.3503L122.338 94.2819ZM146.055 109.482L152.987 103.886L158.582 110.818L151.65 116.413L146.055 109.482ZM162.841 130.276L169.772 124.681L175.368 131.613L168.436 137.208L162.841 130.276ZM178.29 163.598L183.885 170.529L197.748 159.339L203.343 166.271L175.617 188.651L170.022 181.72L178.29 163.598ZM122.338 94.2819L129.27 88.6867L134.865 95.6183L127.933 101.213L122.338 94.2819ZM172.695 156.666L179.626 151.071L185.221 158.003L178.29 163.598L172.695 156.666Z" fill="#25573F"/>
<path d="M143.133 77.4964L150.065 71.9013L166.85 92.6961L159.919 98.2912L154.323 91.3596L148.728 84.428L143.133 77.4964ZM182.299 126.018L189.231 120.422L206.016 141.217L199.085 146.812L193.489 139.881L187.894 132.949L182.299 126.018ZM152.987 103.886L159.919 98.2912L165.514 105.223L158.582 110.818L152.987 103.886ZM169.772 124.681L176.704 119.086L182.299 126.018L175.368 131.613L169.772 124.681ZM127.933 101.213L134.865 95.6183L146.055 109.482L139.124 115.077L127.933 101.213ZM161.504 142.803L168.436 137.208L179.626 151.071L172.695 156.666L161.504 142.803Z" fill="#18143B"/>
<path d="M141.797 90.0232L148.728 84.428L154.323 91.3596L147.392 96.9548L141.797 90.0232ZM186.558 145.476L180.963 138.544L187.894 132.949L193.489 139.881L186.558 145.476ZM129.27 88.6867L136.201 83.0916L141.797 90.0232L134.865 95.6183L129.27 88.6867ZM179.626 151.071L186.558 145.476L192.153 152.408L185.221 158.003L179.626 151.071Z" fill="#27B1D1"/>
<path d="M136.201 83.0916L143.133 77.4964L148.728 84.428L141.797 90.0232L136.201 83.0916ZM186.558 145.476L193.489 139.881L199.085 146.812L192.153 152.408L186.558 145.476ZM122.338 94.2819L116.743 87.3503L130.606 76.16L136.201 83.0916L129.27 88.6867L122.338 94.2819ZM185.221 158.003L192.153 152.408L197.748 159.339L183.885 170.529L178.29 163.598L185.221 158.003Z" fill="#22FD8A"/>
<path d="M141.797 90.0232L147.392 96.9548L154.323 91.3596L159.919 98.2912L152.987 103.886L146.055 109.482L134.865 95.6183L141.797 90.0232ZM175.368 131.613L182.299 126.018L187.894 132.949L180.963 138.544L186.558 145.476L179.626 151.071L168.436 137.208L175.368 131.613Z" fill="#257C88"/>
</g>
<g opacity="0.5">
<path d="M170.505 67.4754C165.287 50.7042 156.936 49.978 131.768 51.9209C106.599 53.8638 69.8055 84.4662 54.9529 103.085C44.7692 119.654 45.1865 126.217 56.1218 134.055C67.057 141.892 81.5051 133.089 91.4031 122.213C101.301 111.338 103.885 97.4596 119.953 91.3724C136.022 85.2853 138.011 92.0147 150.816 89.7152C163.621 87.4157 175.723 84.2465 170.505 67.4754Z" fill="white"/>
<path d="M74.6611 206.335C82.9681 196.137 90.1255 208.538 103.663 213.828C117.2 219.119 123.807 214.499 128.092 220.735C132.377 226.971 134.735 236.296 125.351 246.793C115.966 257.29 99.8318 254.345 83.1587 241.106C66.4856 227.868 66.3542 216.533 74.6611 206.335Z" fill="white"/>
</g>
<circle cx="184" cy="102" r="2.5" stroke="#E6E6E6"/>
<g filter="url(#filter4_d_313_3)">
<mask id="path-38-inside-1_313_3" fill="white">
<path fill-rule="evenodd" clip-rule="evenodd" d="M240.499 96.9749C238.016 97.7925 235.083 97.8633 232.216 97.2411C229.349 96.619 226.709 95.339 224.788 93.5657C224.623 93.4136 224.459 93.2529 224.297 93.0841C223.451 94.8427 221.964 96.1444 220.538 96.9831C218.285 98.3087 215.434 98.9998 212.5 98.9998C209.566 98.9998 206.715 98.3087 204.461 96.9831C204.153 96.8019 203.843 96.5991 203.536 96.3747C203.281 97.0446 202.963 97.6668 202.62 98.221C202.41 98.559 202.182 98.8903 201.936 99.2141L198 97.6726C199.868 95.7161 200.642 93.4738 199.775 91.8268C198.488 89.3834 194.078 89.1754 189.924 91.3623C185.77 93.5493 183.446 97.303 184.732 99.7464C184.929 100.12 185.199 100.442 185.529 100.71C185.529 100.71 186.5 102.5 185.401 103.447C184 104.654 182.635 103.5 182.635 103.5C182.079 102.983 181.587 102.359 181.193 101.61C179.619 98.6215 180.567 95.4838 181.887 93.3522C183.264 91.1294 185.465 89.1896 188.061 87.8229C190.657 86.4562 193.502 85.7395 196.113 85.8626C197.543 85.93 199.174 86.283 200.604 87.1296C201.43 85.2622 202.978 83.8889 204.461 83.0166C206.715 81.6909 209.566 80.9998 212.5 80.9998C215.434 80.9998 218.285 81.6909 220.538 83.0166C221.159 83.3814 221.79 83.8338 222.376 84.3734C223.462 81.9652 225.735 80.5799 227.749 79.9168C230.233 79.0992 233.166 79.0284 236.033 79.6505C238.9 80.2726 241.54 81.5526 243.461 83.3259C244.206 84.0141 244.937 84.8773 245.496 85.88C246.867 84.4529 248.719 83.6829 250.358 83.3424C252.918 82.8107 255.84 83.0719 258.619 84.0141C261.397 84.9563 263.875 86.5265 265.584 88.5056C266.322 89.3614 267.019 90.4311 267.461 91.6411C267.531 91.5846 267.602 91.5295 267.672 91.4757C269.749 89.8883 272.497 88.8588 275.409 88.5054C278.321 88.152 281.235 88.4946 283.632 89.5391C284.818 90.0562 286.076 90.8503 287.071 91.9589C288.544 89.8161 290.979 88.8418 293.049 88.5216C295.633 88.122 298.538 88.5328 301.264 89.6163C303.991 90.6999 306.385 92.3952 307.99 94.4594C308.759 95.4494 309.463 96.6995 309.818 98.0945C312.035 97.0986 314.689 96.6678 317.379 96.823C320.308 96.9919 323.114 97.8461 325.288 99.2992C327.039 100.47 328.846 102.397 329.263 104.983C330.57 104.541 331.938 104.434 333.14 104.513C335.749 104.684 338.496 105.716 340.922 107.366C343.348 109.016 345.317 111.19 346.435 113.554C346.864 114.461 347.216 115.522 347.362 116.648C349.488 115.61 352.039 115.083 354.652 115.105C357.585 115.13 360.431 115.845 362.673 117.19C362.927 117.342 363.183 117.51 363.437 117.692C364.018 115.03 366.05 113.195 367.953 112.153C370.246 110.898 373.117 110.295 376.05 110.385C378.982 110.476 381.81 111.255 384.022 112.649C384.733 113.097 385.455 113.665 386.098 114.35C387.99 111.65 391.142 111.014 393.608 111.16C396.218 111.314 398.97 112.328 401.407 113.962C403.844 115.596 405.827 117.758 406.96 120.114C407.412 121.054 407.782 122.16 407.924 123.334C408.847 123.151 409.767 123.11 410.608 123.159C411.306 123.2 412.014 123.303 412.723 123.463L409.616 127.145C408.603 127.189 407.718 127.456 407.054 127.951C406.968 128.101 406.875 128.25 406.776 128.399C406.538 128.754 406.278 129.075 406.001 129.365C405.16 131.705 407.064 135.211 410.61 137.589C414.508 140.204 418.916 140.464 420.454 138.17C421.133 137.158 421.139 135.817 420.599 134.409L423.643 131.5C423.755 131.703 423.861 131.907 423.96 132.114C425.047 134.373 425.657 137.593 423.776 140.398C421.895 143.203 418.684 143.861 416.181 143.713C413.571 143.559 410.818 142.545 408.382 140.911C405.945 139.277 403.962 137.115 402.829 134.759C402.377 133.819 402.007 132.713 401.865 131.539C400.942 131.722 400.022 131.763 399.181 131.714C396.571 131.559 393.818 130.545 391.382 128.911C389.43 127.603 387.77 125.956 386.604 124.142C385.739 125.211 384.645 126.032 383.591 126.609C381.298 127.865 378.426 128.467 375.494 128.377C372.562 128.286 369.733 127.508 367.522 126.113C367.317 125.984 367.112 125.845 366.908 125.697C366.335 128.276 364.392 130.096 362.555 131.156C360.29 132.463 357.433 133.13 354.5 133.105C351.566 133.08 348.721 132.365 346.478 131.02C344.49 129.828 342.39 127.724 342.108 124.744C340.909 125.093 339.676 125.175 338.581 125.103C335.972 124.932 333.226 123.9 330.8 122.25C328.374 120.6 326.405 118.426 325.287 116.062C324.897 115.24 324.572 114.291 324.406 113.282C322.093 114.448 319.239 114.96 316.342 114.793C313.413 114.624 310.607 113.77 308.433 112.317C306.774 111.207 305.065 109.419 304.535 107.035C303.958 107.222 303.382 107.353 302.831 107.438C300.247 107.838 297.343 107.427 294.616 106.344C291.89 105.26 289.495 103.565 287.891 101.501C287.782 101.36 287.674 101.214 287.568 101.064C286.92 102.004 286.116 102.791 285.314 103.404C283.237 104.991 280.49 106.021 277.577 106.374C274.665 106.728 271.751 106.385 269.354 105.341C267.417 104.496 265.29 102.914 264.426 100.429C263.357 101.095 262.182 101.507 261.098 101.732C258.538 102.264 255.616 102.003 252.838 101.061C250.059 100.118 247.581 98.5482 245.873 96.5691C245.37 95.9868 244.887 95.3055 244.491 94.5484C243.339 95.7489 241.86 96.5268 240.499 96.9749ZM403.788 125.508C403.511 125.797 403.251 126.119 403.013 126.474C402.913 126.622 402.821 126.772 402.735 126.922C400.803 128.36 397.013 127.871 393.61 125.589C389.711 122.975 387.797 118.996 389.335 116.702C390.873 114.409 395.28 114.669 399.179 117.284C402.725 119.662 404.629 123.167 403.788 125.508ZM309.205 103.351C309.037 103.665 308.849 103.957 308.645 104.23C308.489 104.576 308.396 104.94 308.375 105.319C308.216 108.075 311.886 110.529 316.573 110.8C321.259 111.07 325.187 109.054 325.346 106.297C325.505 103.541 321.835 101.087 317.148 100.816C313.677 100.616 310.621 101.67 309.205 103.351ZM305.839 101.119C305.834 101.133 305.828 101.147 305.823 101.16C305.816 101.177 305.809 101.193 305.802 101.21C305.609 101.471 305.43 101.746 305.268 102.035C303.668 103.822 299.88 104.131 296.094 102.626C291.731 100.893 289.021 97.4068 290.041 94.8407C291.061 92.2745 295.424 91.5997 299.787 93.3335C304.149 95.0673 306.859 98.5532 305.839 101.119ZM233.064 93.3321C237.652 94.3276 241.845 92.9469 242.431 90.2483C243.016 87.5496 239.772 84.555 235.184 83.5595C230.597 82.5641 226.403 83.9447 225.818 86.6434C225.232 89.342 228.476 92.3366 233.064 93.3321ZM221 89.9998C221 92.7612 217.194 94.9998 212.5 94.9998C207.806 94.9998 204 92.7612 204 89.9998C204 87.2384 207.806 84.9998 212.5 84.9998C217.194 84.9998 221 87.2384 221 89.9998ZM263.778 95.2672C262.891 97.8823 258.568 98.7801 254.122 97.2725C249.677 95.7648 246.792 92.4226 247.678 89.8075C248.565 87.1924 252.888 86.2946 257.334 87.8022C261.78 89.3098 264.665 92.652 263.778 95.2672ZM277.095 102.403C281.756 101.838 285.264 99.1573 284.931 96.4159C284.599 93.6746 280.551 91.9108 275.891 92.4762C271.231 93.0417 267.722 95.7224 268.055 98.4637C268.388 101.205 272.435 102.969 277.095 102.403ZM342.889 119.588C341.336 121.871 336.931 121.582 333.049 118.942C329.167 116.303 327.279 112.312 328.832 110.028C330.385 107.745 334.79 108.034 338.672 110.673C342.554 113.313 344.442 117.304 342.889 119.588ZM354.533 129.105C359.228 129.145 363.052 126.938 363.075 124.177C363.099 121.416 359.312 119.145 354.618 119.105C349.924 119.066 346.099 121.272 346.076 124.033C346.053 126.794 349.839 129.065 354.533 129.105ZM384.268 119.644C384.183 122.404 380.31 124.524 375.617 124.379C370.925 124.234 367.191 121.879 367.276 119.119C367.361 116.359 371.234 114.239 375.926 114.384C380.618 114.528 384.353 116.883 384.268 119.644Z"/>
</mask>
<path fill-rule="evenodd" clip-rule="evenodd" d="M240.499 96.9749C238.016 97.7925 235.083 97.8633 232.216 97.2411C229.349 96.619 226.709 95.339 224.788 93.5657C224.623 93.4136 224.459 93.2529 224.297 93.0841C223.451 94.8427 221.964 96.1444 220.538 96.9831C218.285 98.3087 215.434 98.9998 212.5 98.9998C209.566 98.9998 206.715 98.3087 204.461 96.9831C204.153 96.8019 203.843 96.5991 203.536 96.3747C203.281 97.0446 202.963 97.6668 202.62 98.221C202.41 98.559 202.182 98.8903 201.936 99.2141L198 97.6726C199.868 95.7161 200.642 93.4738 199.775 91.8268C198.488 89.3834 194.078 89.1754 189.924 91.3623C185.77 93.5493 183.446 97.303 184.732 99.7464C184.929 100.12 185.199 100.442 185.529 100.71C185.529 100.71 186.5 102.5 185.401 103.447C184 104.654 182.635 103.5 182.635 103.5C182.079 102.983 181.587 102.359 181.193 101.61C179.619 98.6215 180.567 95.4838 181.887 93.3522C183.264 91.1294 185.465 89.1896 188.061 87.8229C190.657 86.4562 193.502 85.7395 196.113 85.8626C197.543 85.93 199.174 86.283 200.604 87.1296C201.43 85.2622 202.978 83.8889 204.461 83.0166C206.715 81.6909 209.566 80.9998 212.5 80.9998C215.434 80.9998 218.285 81.6909 220.538 83.0166C221.159 83.3814 221.79 83.8338 222.376 84.3734C223.462 81.9652 225.735 80.5799 227.749 79.9168C230.233 79.0992 233.166 79.0284 236.033 79.6505C238.9 80.2726 241.54 81.5526 243.461 83.3259C244.206 84.0141 244.937 84.8773 245.496 85.88C246.867 84.4529 248.719 83.6829 250.358 83.3424C252.918 82.8107 255.84 83.0719 258.619 84.0141C261.397 84.9563 263.875 86.5265 265.584 88.5056C266.322 89.3614 267.019 90.4311 267.461 91.6411C267.531 91.5846 267.602 91.5295 267.672 91.4757C269.749 89.8883 272.497 88.8588 275.409 88.5054C278.321 88.152 281.235 88.4946 283.632 89.5391C284.818 90.0562 286.076 90.8503 287.071 91.9589C288.544 89.8161 290.979 88.8418 293.049 88.5216C295.633 88.122 298.538 88.5328 301.264 89.6163C303.991 90.6999 306.385 92.3952 307.99 94.4594C308.759 95.4494 309.463 96.6995 309.818 98.0945C312.035 97.0986 314.689 96.6678 317.379 96.823C320.308 96.9919 323.114 97.8461 325.288 99.2992C327.039 100.47 328.846 102.397 329.263 104.983C330.57 104.541 331.938 104.434 333.14 104.513C335.749 104.684 338.496 105.716 340.922 107.366C343.348 109.016 345.317 111.19 346.435 113.554C346.864 114.461 347.216 115.522 347.362 116.648C349.488 115.61 352.039 115.083 354.652 115.105C357.585 115.13 360.431 115.845 362.673 117.19C362.927 117.342 363.183 117.51 363.437 117.692C364.018 115.03 366.05 113.195 367.953 112.153C370.246 110.898 373.117 110.295 376.05 110.385C378.982 110.476 381.81 111.255 384.022 112.649C384.733 113.097 385.455 113.665 386.098 114.35C387.99 111.65 391.142 111.014 393.608 111.16C396.218 111.314 398.97 112.328 401.407 113.962C403.844 115.596 405.827 117.758 406.96 120.114C407.412 121.054 407.782 122.16 407.924 123.334C408.847 123.151 409.767 123.11 410.608 123.159C411.306 123.2 412.014 123.303 412.723 123.463L409.616 127.145C408.603 127.189 407.718 127.456 407.054 127.951C406.968 128.101 406.875 128.25 406.776 128.399C406.538 128.754 406.278 129.075 406.001 129.365C405.16 131.705 407.064 135.211 410.61 137.589C414.508 140.204 418.916 140.464 420.454 138.17C421.133 137.158 421.139 135.817 420.599 134.409L423.643 131.5C423.755 131.703 423.861 131.907 423.96 132.114C425.047 134.373 425.657 137.593 423.776 140.398C421.895 143.203 418.684 143.861 416.181 143.713C413.571 143.559 410.818 142.545 408.382 140.911C405.945 139.277 403.962 137.115 402.829 134.759C402.377 133.819 402.007 132.713 401.865 131.539C400.942 131.722 400.022 131.763 399.181 131.714C396.571 131.559 393.818 130.545 391.382 128.911C389.43 127.603 387.77 125.956 386.604 124.142C385.739 125.211 384.645 126.032 383.591 126.609C381.298 127.865 378.426 128.467 375.494 128.377C372.562 128.286 369.733 127.508 367.522 126.113C367.317 125.984 367.112 125.845 366.908 125.697C366.335 128.276 364.392 130.096 362.555 131.156C360.29 132.463 357.433 133.13 354.5 133.105C351.566 133.08 348.721 132.365 346.478 131.02C344.49 129.828 342.39 127.724 342.108 124.744C340.909 125.093 339.676 125.175 338.581 125.103C335.972 124.932 333.226 123.9 330.8 122.25C328.374 120.6 326.405 118.426 325.287 116.062C324.897 115.24 324.572 114.291 324.406 113.282C322.093 114.448 319.239 114.96 316.342 114.793C313.413 114.624 310.607 113.77 308.433 112.317C306.774 111.207 305.065 109.419 304.535 107.035C303.958 107.222 303.382 107.353 302.831 107.438C300.247 107.838 297.343 107.427 294.616 106.344C291.89 105.26 289.495 103.565 287.891 101.501C287.782 101.36 287.674 101.214 287.568 101.064C286.92 102.004 286.116 102.791 285.314 103.404C283.237 104.991 280.49 106.021 277.577 106.374C274.665 106.728 271.751 106.385 269.354 105.341C267.417 104.496 265.29 102.914 264.426 100.429C263.357 101.095 262.182 101.507 261.098 101.732C258.538 102.264 255.616 102.003 252.838 101.061C250.059 100.118 247.581 98.5482 245.873 96.5691C245.37 95.9868 244.887 95.3055 244.491 94.5484C243.339 95.7489 241.86 96.5268 240.499 96.9749ZM403.788 125.508C403.511 125.797 403.251 126.119 403.013 126.474C402.913 126.622 402.821 126.772 402.735 126.922C400.803 128.36 397.013 127.871 393.61 125.589C389.711 122.975 387.797 118.996 389.335 116.702C390.873 114.409 395.28 114.669 399.179 117.284C402.725 119.662 404.629 123.167 403.788 125.508ZM309.205 103.351C309.037 103.665 308.849 103.957 308.645 104.23C308.489 104.576 308.396 104.94 308.375 105.319C308.216 108.075 311.886 110.529 316.573 110.8C321.259 111.07 325.187 109.054 325.346 106.297C325.505 103.541 321.835 101.087 317.148 100.816C313.677 100.616 310.621 101.67 309.205 103.351ZM305.839 101.119C305.834 101.133 305.828 101.147 305.823 101.16C305.816 101.177 305.809 101.193 305.802 101.21C305.609 101.471 305.43 101.746 305.268 102.035C303.668 103.822 299.88 104.131 296.094 102.626C291.731 100.893 289.021 97.4068 290.041 94.8407C291.061 92.2745 295.424 91.5997 299.787 93.3335C304.149 95.0673 306.859 98.5532 305.839 101.119ZM233.064 93.3321C237.652 94.3276 241.845 92.9469 242.431 90.2483C243.016 87.5496 239.772 84.555 235.184 83.5595C230.597 82.5641 226.403 83.9447 225.818 86.6434C225.232 89.342 228.476 92.3366 233.064 93.3321ZM221 89.9998C221 92.7612 217.194 94.9998 212.5 94.9998C207.806 94.9998 204 92.7612 204 89.9998C204 87.2384 207.806 84.9998 212.5 84.9998C217.194 84.9998 221 87.2384 221 89.9998ZM263.778 95.2672C262.891 97.8823 258.568 98.7801 254.122 97.2725C249.677 95.7648 246.792 92.4226 247.678 89.8075C248.565 87.1924 252.888 86.2946 257.334 87.8022C261.78 89.3098 264.665 92.652 263.778 95.2672ZM277.095 102.403C281.756 101.838 285.264 99.1573 284.931 96.4159C284.599 93.6746 280.551 91.9108 275.891 92.4762C271.231 93.0417 267.722 95.7224 268.055 98.4637C268.388 101.205 272.435 102.969 277.095 102.403ZM342.889 119.588C341.336 121.871 336.931 121.582 333.049 118.942C329.167 116.303 327.279 112.312 328.832 110.028C330.385 107.745 334.79 108.034 338.672 110.673C342.554 113.313 344.442 117.304 342.889 119.588ZM354.533 129.105C359.228 129.145 363.052 126.938 363.075 124.177C363.099 121.416 359.312 119.145 354.618 119.105C349.924 119.066 346.099 121.272 346.076 124.033C346.053 126.794 349.839 129.065 354.533 129.105ZM384.268 119.644C384.183 122.404 380.31 124.524 375.617 124.379C370.925 124.234 367.191 121.879 367.276 119.119C367.361 116.359 371.234 114.239 375.926 114.384C380.618 114.528 384.353 116.883 384.268 119.644Z" fill="#D9D9D9"/>
<path fill-rule="evenodd" clip-rule="evenodd" d="M240.499 96.9749C238.016 97.7925 235.083 97.8633 232.216 97.2411C229.349 96.619 226.709 95.339 224.788 93.5657C224.623 93.4136 224.459 93.2529 224.297 93.0841C223.451 94.8427 221.964 96.1444 220.538 96.9831C218.285 98.3087 215.434 98.9998 212.5 98.9998C209.566 98.9998 206.715 98.3087 204.461 96.9831C204.153 96.8019 203.843 96.5991 203.536 96.3747C203.281 97.0446 202.963 97.6668 202.62 98.221C202.41 98.559 202.182 98.8903 201.936 99.2141L198 97.6726C199.868 95.7161 200.642 93.4738 199.775 91.8268C198.488 89.3834 194.078 89.1754 189.924 91.3623C185.77 93.5493 183.446 97.303 184.732 99.7464C184.929 100.12 185.199 100.442 185.529 100.71C185.529 100.71 186.5 102.5 185.401 103.447C184 104.654 182.635 103.5 182.635 103.5C182.079 102.983 181.587 102.359 181.193 101.61C179.619 98.6215 180.567 95.4838 181.887 93.3522C183.264 91.1294 185.465 89.1896 188.061 87.8229C190.657 86.4562 193.502 85.7395 196.113 85.8626C197.543 85.93 199.174 86.283 200.604 87.1296C201.43 85.2622 202.978 83.8889 204.461 83.0166C206.715 81.6909 209.566 80.9998 212.5 80.9998C215.434 80.9998 218.285 81.6909 220.538 83.0166C221.159 83.3814 221.79 83.8338 222.376 84.3734C223.462 81.9652 225.735 80.5799 227.749 79.9168C230.233 79.0992 233.166 79.0284 236.033 79.6505C238.9 80.2726 241.54 81.5526 243.461 83.3259C244.206 84.0141 244.937 84.8773 245.496 85.88C246.867 84.4529 248.719 83.6829 250.358 83.3424C252.918 82.8107 255.84 83.0719 258.619 84.0141C261.397 84.9563 263.875 86.5265 265.584 88.5056C266.322 89.3614 267.019 90.4311 267.461 91.6411C267.531 91.5846 267.602 91.5295 267.672 91.4757C269.749 89.8883 272.497 88.8588 275.409 88.5054C278.321 88.152 281.235 88.4946 283.632 89.5391C284.818 90.0562 286.076 90.8503 287.071 91.9589C288.544 89.8161 290.979 88.8418 293.049 88.5216C295.633 88.122 298.538 88.5328 301.264 89.6163C303.991 90.6999 306.385 92.3952 307.99 94.4594C308.759 95.4494 309.463 96.6995 309.818 98.0945C312.035 97.0986 314.689 96.6678 317.379 96.823C320.308 96.9919 323.114 97.8461 325.288 99.2992C327.039 100.47 328.846 102.397 329.263 104.983C330.57 104.541 331.938 104.434 333.14 104.513C335.749 104.684 338.496 105.716 340.922 107.366C343.348 109.016 345.317 111.19 346.435 113.554C346.864 114.461 347.216 115.522 347.362 116.648C349.488 115.61 352.039 115.083 354.652 115.105C357.585 115.13 360.431 115.845 362.673 117.19C362.927 117.342 363.183 117.51 363.437 117.692C364.018 115.03 366.05 113.195 367.953 112.153C370.246 110.898 373.117 110.295 376.05 110.385C378.982 110.476 381.81 111.255 384.022 112.649C384.733 113.097 385.455 113.665 386.098 114.35C387.99 111.65 391.142 111.014 393.608 111.16C396.218 111.314 398.97 112.328 401.407 113.962C403.844 115.596 405.827 117.758 406.96 120.114C407.412 121.054 407.782 122.16 407.924 123.334C408.847 123.151 409.767 123.11 410.608 123.159C411.306 123.2 412.014 123.303 412.723 123.463L409.616 127.145C408.603 127.189 407.718 127.456 407.054 127.951C406.968 128.101 406.875 128.25 406.776 128.399C406.538 128.754 406.278 129.075 406.001 129.365C405.16 131.705 407.064 135.211 410.61 137.589C414.508 140.204 418.916 140.464 420.454 138.17C421.133 137.158 421.139 135.817 420.599 134.409L423.643 131.5C423.755 131.703 423.861 131.907 423.96 132.114C425.047 134.373 425.657 137.593 423.776 140.398C421.895 143.203 418.684 143.861 416.181 143.713C413.571 143.559 410.818 142.545 408.382 140.911C405.945 139.277 403.962 137.115 402.829 134.759C402.377 133.819 402.007 132.713 401.865 131.539C400.942 131.722 400.022 131.763 399.181 131.714C396.571 131.559 393.818 130.545 391.382 128.911C389.43 127.603 387.77 125.956 386.604 124.142C385.739 125.211 384.645 126.032 383.591 126.609C381.298 127.865 378.426 128.467 375.494 128.377C372.562 128.286 369.733 127.508 367.522 126.113C367.317 125.984 367.112 125.845 366.908 125.697C366.335 128.276 364.392 130.096 362.555 131.156C360.29 132.463 357.433 133.13 354.5 133.105C351.566 133.08 348.721 132.365 346.478 131.02C344.49 129.828 342.39 127.724 342.108 124.744C340.909 125.093 339.676 125.175 338.581 125.103C335.972 124.932 333.226 123.9 330.8 122.25C328.374 120.6 326.405 118.426 325.287 116.062C324.897 115.24 324.572 114.291 324.406 113.282C322.093 114.448 319.239 114.96 316.342 114.793C313.413 114.624 310.607 113.77 308.433 112.317C306.774 111.207 305.065 109.419 304.535 107.035C303.958 107.222 303.382 107.353 302.831 107.438C300.247 107.838 297.343 107.427 294.616 106.344C291.89 105.26 289.495 103.565 287.891 101.501C287.782 101.36 287.674 101.214 287.568 101.064C286.92 102.004 286.116 102.791 285.314 103.404C283.237 104.991 280.49 106.021 277.577 106.374C274.665 106.728 271.751 106.385 269.354 105.341C267.417 104.496 265.29 102.914 264.426 100.429C263.357 101.095 262.182 101.507 261.098 101.732C258.538 102.264 255.616 102.003 252.838 101.061C250.059 100.118 247.581 98.5482 245.873 96.5691C245.37 95.9868 244.887 95.3055 244.491 94.5484C243.339 95.7489 241.86 96.5268 240.499 96.9749ZM403.788 125.508C403.511 125.797 403.251 126.119 403.013 126.474C402.913 126.622 402.821 126.772 402.735 126.922C400.803 128.36 397.013 127.871 393.61 125.589C389.711 122.975 387.797 118.996 389.335 116.702C390.873 114.409 395.28 114.669 399.179 117.284C402.725 119.662 404.629 123.167 403.788 125.508ZM309.205 103.351C309.037 103.665 308.849 103.957 308.645 104.23C308.489 104.576 308.396 104.94 308.375 105.319C308.216 108.075 311.886 110.529 316.573 110.8C321.259 111.07 325.187 109.054 325.346 106.297C325.505 103.541 321.835 101.087 317.148 100.816C313.677 100.616 310.621 101.67 309.205 103.351ZM305.839 101.119C305.834 101.133 305.828 101.147 305.823 101.16C305.816 101.177 305.809 101.193 305.802 101.21C305.609 101.471 305.43 101.746 305.268 102.035C303.668 103.822 299.88 104.131 296.094 102.626C291.731 100.893 289.021 97.4068 290.041 94.8407C291.061 92.2745 295.424 91.5997 299.787 93.3335C304.149 95.0673 306.859 98.5532 305.839 101.119ZM233.064 93.3321C237.652 94.3276 241.845 92.9469 242.431 90.2483C243.016 87.5496 239.772 84.555 235.184 83.5595C230.597 82.5641 226.403 83.9447 225.818 86.6434C225.232 89.342 228.476 92.3366 233.064 93.3321ZM221 89.9998C221 92.7612 217.194 94.9998 212.5 94.9998C207.806 94.9998 204 92.7612 204 89.9998C204 87.2384 207.806 84.9998 212.5 84.9998C217.194 84.9998 221 87.2384 221 89.9998ZM263.778 95.2672C262.891 97.8823 258.568 98.7801 254.122 97.2725C249.677 95.7648 246.792 92.4226 247.678 89.8075C248.565 87.1924 252.888 86.2946 257.334 87.8022C261.78 89.3098 264.665 92.652 263.778 95.2672ZM277.095 102.403C281.756 101.838 285.264 99.1573 284.931 96.4159C284.599 93.6746 280.551 91.9108 275.891 92.4762C271.231 93.0417 267.722 95.7224 268.055 98.4637C268.388 101.205 272.435 102.969 277.095 102.403ZM342.889 119.588C341.336 121.871 336.931 121.582 333.049 118.942C329.167 116.303 327.279 112.312 328.832 110.028C330.385 107.745 334.79 108.034 338.672 110.673C342.554 113.313 344.442 117.304 342.889 119.588ZM354.533 129.105C359.228 129.145 363.052 126.938 363.075 124.177C363.099 121.416 359.312 119.145 354.618 119.105C349.924 119.066 346.099 121.272 346.076 124.033C346.053 126.794 349.839 129.065 354.533 129.105ZM384.268 119.644C384.183 122.404 380.31 124.524 375.617 124.379C370.925 124.234 367.191 121.879 367.276 119.119C367.361 116.359 371.234 114.239 375.926 114.384C380.618 114.528 384.353 116.883 384.268 119.644Z" stroke="#999999" stroke-width="2" mask="url(#path-38-inside-1_313_3)"/>
</g>
<defs>
<filter id="filter0_d_313_3" x="0.978851" y="0.479492" width="477.404" height="213.874" filterUnits="userSpaceOnUse" color-interpolation-filters="sRGB">
<feFlood flood-opacity="0" result="BackgroundImageFix"/>
<feColorMatrix in="SourceAlpha" type="matrix" values="0 0 0 0 0 0 0 0 0 0 0 0 0 0 0 0 0 0 127 0" result="hardAlpha"/>
<feOffset dx="6" dy="6"/>
<feComposite in2="hardAlpha" operator="out"/>
<feColorMatrix type="matrix" values="0 0 0 0 0 0 0 0 0 0 0 0 0 0 0 0 0 0 0.25 0"/>
<feBlend mode="normal" in2="BackgroundImageFix" result="effect1_dropShadow_313_3"/>
<feBlend mode="normal" in="SourceGraphic" in2="effect1_dropShadow_313_3" result="shape"/>
</filter>
<filter id="filter1_d_313_3" x="1.02994" y="111" width="448.97" height="225" filterUnits="userSpaceOnUse" color-interpolation-filters="sRGB">
<feFlood flood-opacity="0" result="BackgroundImageFix"/>
<feColorMatrix in="SourceAlpha" type="matrix" values="0 0 0 0 0 0 0 0 0 0 0 0 0 0 0 0 0 0 127 0" result="hardAlpha"/>
<feOffset dx="6" dy="6"/>
<feComposite in2="hardAlpha" operator="out"/>
<feColorMatrix type="matrix" values="0 0 0 0 0 0 0 0 0 0 0 0 0 0 0 0 0 0 0.25 0"/>
<feBlend mode="normal" in2="BackgroundImageFix" result="effect1_dropShadow_313_3"/>
<feBlend mode="normal" in="SourceGraphic" in2="effect1_dropShadow_313_3" result="shape"/>
</filter>
<filter id="filter2_d_313_3" x="1.42514" y="44.0498" width="243.753" height="236.398" filterUnits="userSpaceOnUse" color-interpolation-filters="sRGB">
<feFlood flood-opacity="0" result="BackgroundImageFix"/>
<feColorMatrix in="SourceAlpha" type="matrix" values="0 0 0 0 0 0 0 0 0 0 0 0 0 0 0 0 0 0 127 0" result="hardAlpha"/>
<feOffset dx="8" dy="8"/>
<feComposite in2="hardAlpha" operator="out"/>
<feColorMatrix type="matrix" values="0 0 0 0 0 0 0 0 0 0 0 0 0 0 0 0 0 0 0.25 0"/>
<feBlend mode="normal" in2="BackgroundImageFix" result="effect1_dropShadow_313_3"/>
<feBlend mode="normal" in="SourceGraphic" in2="effect1_dropShadow_313_3" result="shape"/>
</filter>
<filter id="filter3_d_313_3" x="27.9688" y="69.2285" width="182.047" height="179.374" filterUnits="userSpaceOnUse" color-interpolation-filters="sRGB">
<feFlood flood-opacity="0" result="BackgroundImageFix"/>
<feColorMatrix in="SourceAlpha" type="matrix" values="0 0 0 0 0 0 0 0 0 0 0 0 0 0 0 0 0 0 127 0" result="hardAlpha"/>
<feOffset dx="4" dy="4"/>
<feComposite in2="hardAlpha" operator="out"/>
<feColorMatrix type="matrix" values="0 0 0 0 0 0 0 0 0 0 0 0 0 0 0 0 0 0 0.25 0"/>
<feBlend mode="normal" in2="BackgroundImageFix" result="effect1_dropShadow_313_3"/>
<feBlend mode="normal" in="SourceGraphic" in2="effect1_dropShadow_313_3" result="shape"/>
</filter>
<filter id="filter4_d_313_3" x="180.373" y="79.2363" width="248.614" height="68.4961" filterUnits="userSpaceOnUse" color-interpolation-filters="sRGB">
<feFlood flood-opacity="0" result="BackgroundImageFix"/>
<feColorMatrix in="SourceAlpha" type="matrix" values="0 0 0 0 0 0 0 0 0 0 0 0 0 0 0 0 0 0 127 0" result="hardAlpha"/>
<feOffset dx="4" dy="4"/>
<feComposite in2="hardAlpha" operator="out"/>
<feColorMatrix type="matrix" values="0 0 0 0 0 0 0 0 0 0 0 0 0 0 0 0 0 0 0.25 0"/>
<feBlend mode="normal" in2="BackgroundImageFix" result="effect1_dropShadow_313_3"/>
<feBlend mode="normal" in="SourceGraphic" in2="effect1_dropShadow_313_3" result="shape"/>
</filter>
</defs>
</svg>
