<svg width="646" height="336" viewBox="0 0 646 336" fill="none" xmlns="http://www.w3.org/2000/svg">
<path d="M641.225 240.344C641.194 240.459 640.101 244.546 639.261 246.999C619.324 307.621 552.044 342.163 485.48 324.621C434.225 311.114 397.82 270.525 389.507 224.001H402.99C414.326 261.194 448.394 294.303 490.543 305.411C547.556 320.436 611.542 293.147 629.102 244.26C630.005 241.806 631.14 237.683 631.14 237.683L631.142 237.683C645.101 184.706 601.698 125.15 542.179 109.465C482.659 93.7788 415.539 124.21 401.578 177.188C397.503 192.649 398.315 208.671 402.987 224H389.504C386.632 207.928 387.113 191.147 391.492 174.53C408.548 109.812 478.279 72.0802 547.241 90.2542C616.204 108.428 658.282 175.626 641.227 240.344L641.225 240.344Z" fill="black" fill-opacity="0.25"/>
<path d="M627.138 233.687C641.099 180.709 597.696 121.151 538.175 105.465C478.655 89.7792 411.536 120.211 397.574 173.188C393.5 188.65 394.311 204.672 398.983 220L385.501 220C382.629 203.928 383.11 187.148 387.489 170.531C404.545 105.812 474.276 68.0806 543.238 86.2546C612.2 104.429 654.279 171.626 637.223 236.345L627.138 233.687Z" fill="#999999"/>
<path d="M392.5 171.651C399.754 144.124 422.95 123.437 449.517 110.883C476.09 98.3269 507.709 96.4707 538.175 104.5C568.642 112.529 595.715 129.852 612.648 153.874C629.577 177.891 639.254 208.193 632 235.72C631.468 237.738 630.852 239.717 630.155 241.657L625.099 240.247C625.87 238.101 626.551 235.914 627.138 233.686C641.099 180.709 597.696 121.15 538.175 105.465C478.655 89.779 411.536 120.211 397.574 173.188C393.941 186.976 394.193 201.21 397.603 215H393.583C389.579 200.683 388.755 185.864 392.5 171.651Z" fill="#666666"/>
<path d="M632 235.72C648.591 172.763 609.546 108.801 542 91.0006C474.454 73.1998 408.982 109.116 392.39 172.074C388.606 186.435 387.699 200.945 389.355 215.001H384.719C382.77 200.465 383.562 185.432 387.489 170.531C404.545 105.813 474.276 68.0812 543.238 86.2552C612.2 104.429 654.279 171.627 637.223 236.345C636.63 238.597 635.973 240.816 635.254 243.001L630.267 241.657C630.893 239.705 631.472 237.725 632 235.72Z" fill="#666666"/>
<path d="M622.964 170.517C606.578 138.364 574.463 110.687 538.182 101.126C496.041 90.02 448.432 103.105 418.519 131.083C418.225 131.358 417.766 131.348 417.485 131.06C417.212 130.779 417.205 130.336 417.472 130.05C446.315 99.1931 493.53 78.8749 542.155 91.6893C584.02 102.722 613.008 134.587 626.397 169.037C626.751 169.95 626.326 170.974 625.437 171.384C624.515 171.809 623.425 171.422 622.964 170.517Z" fill="#D9D9D9"/>
<path d="M565.016 103.672C557.907 99.3951 542.298 94.2788 544.806 98.5078C547.313 102.737 580.977 119.848 582.05 117.252C583.392 114.007 573.902 109.019 565.016 103.672Z" fill="#E6E6E6"/>
<path d="M522.786 91.1936C525.567 89.207 529.904 90.3658 531.726 91.1936C535.037 92.187 541.361 94.7697 540.169 97.1536C538.977 99.5376 531.063 98.147 527.256 97.1536C524.607 95.9947 520.004 93.1802 522.786 91.1936Z" fill="#E6E6E6"/>
<g filter="url(#filter0_d_287_9)">
<path fill-rule="evenodd" clip-rule="evenodd" d="M245.442 113.783L436.478 200.175C453.875 208.042 473.048 193.43 470.074 174.569L445.968 21.6689C443.816 8.01878 430.611 -0.998774 417.113 1.96501L258.657 36.7597C249.893 38.6842 242.934 45.3371 240.618 54.0063L232.145 85.7205C229.113 97.0684 234.74 108.943 245.442 113.783ZM408.064 171.297C423.563 178.57 442.024 171.901 449.297 156.402C456.57 140.903 449.901 122.442 434.402 115.169C418.903 107.896 400.442 114.565 393.169 130.064C385.896 145.563 392.565 164.024 408.064 171.297Z" fill="#F3D8AB"/>
<path fill-rule="evenodd" clip-rule="evenodd" d="M258.657 36.7597C249.893 38.6842 242.934 45.3372 240.618 54.0063L232.145 85.7205C229.113 97.0684 234.74 108.943 245.442 113.783L436.478 200.175C453.875 208.042 473.048 193.43 470.074 174.569L445.968 21.6689C443.816 8.01878 430.611 -0.998772 417.113 1.96501L258.657 36.7597ZM250.799 101.938L441.834 188.33C449.808 191.936 458.596 185.238 457.233 176.594L433.127 23.6934C432.14 17.4371 426.088 13.3041 419.902 14.6625L261.446 49.4572C257.429 50.3392 254.239 53.3885 253.178 57.3618L244.704 89.076C243.315 94.2772 245.894 99.7198 250.799 101.938L245.707 113.198L250.799 101.938Z" fill="#DAC298"/>
<path fill-rule="evenodd" clip-rule="evenodd" d="M250.387 102.849L441.422 189.241C450.121 193.175 459.707 185.868 458.22 176.438L434.114 23.5377C433.038 16.7126 426.436 9.22343 419.687 10.7053L261.231 45.5C256.849 46.4623 253.37 52.7692 252.212 57.1037L243.738 88.8179C242.222 94.4919 245.036 100.429 250.387 102.849ZM245.442 113.783L436.478 200.175C453.875 208.042 473.048 193.43 470.074 174.569L445.968 21.6689C443.816 8.01878 430.611 -0.998772 417.113 1.96501L258.657 36.7597C249.893 38.6842 242.934 45.3372 240.618 54.0063L232.145 85.7205C229.113 97.0684 234.74 108.943 245.442 113.783Z" fill="#FFF1D9"/>
<path fill-rule="evenodd" clip-rule="evenodd" d="M246.415 111L436.478 197.5C449.526 203.401 468.836 188.546 466.606 174.4L442.5 21.5C440.886 11.2624 428.523 5.60255 418.4 7.82538L259.944 42.6201C253.371 44.0635 248.152 49.0532 246.415 55.555L237.942 87.2692C235.668 95.7801 238.388 107.37 246.415 111ZM245.442 113.783L436.478 200.175C453.875 208.042 473.048 193.43 470.074 174.569L445.968 21.6689C443.816 8.01878 430.611 -0.998772 417.113 1.96501L258.657 36.7597C249.893 38.6842 242.934 45.3372 240.618 54.0063L232.145 85.7205C229.113 97.0684 234.74 108.943 245.442 113.783Z" fill="#D2B78A"/>
<path d="M297.798 53.116L394.899 34.1181C407.926 31.5694 420.548 40.079 423.07 53.111L435.152 115.532C434.904 115.408 434.654 115.287 434.402 115.169C418.903 107.896 400.442 114.564 393.169 130.063C390.572 135.597 389.753 141.508 390.478 147.152L292.519 108.257C282.468 104.266 276.328 94.0478 277.522 83.3005L278.554 74.019C279.712 63.5947 287.505 55.1299 297.798 53.116Z" fill="#FFECCC"/>
<path d="M292.308 63.2538L336.832 44.7998C342.152 42.5948 348.289 44.4799 351.453 49.2915L374.011 83.5908C378.314 90.1344 375.298 98.9799 367.893 101.53L342.711 110.204C339.403 111.343 335.763 110.982 332.743 109.215L290.842 84.6964C282.284 79.6883 283.148 67.0504 292.308 63.2538Z" fill="#FFF4E2"/>
<path fill-rule="evenodd" clip-rule="evenodd" d="M411.462 164.054C422.962 169.451 436.658 164.503 442.055 153.003C447.451 141.504 442.503 127.808 431.004 122.411C419.504 117.015 405.808 121.963 400.412 133.462C395.015 144.962 399.963 158.658 411.462 164.054ZM408.064 171.297C423.563 178.57 442.024 171.901 449.297 156.402C456.57 140.903 449.901 122.442 434.402 115.169C418.903 107.896 400.442 114.565 393.169 130.064C385.896 145.563 392.565 164.024 408.064 171.297Z" fill="#F3D8AB"/>
<path fill-rule="evenodd" clip-rule="evenodd" d="M410.825 165.412C422.325 170.808 440.279 166.202 445.676 154.703C451.072 143.203 445.052 122.376 433.553 116.98C422.053 111.583 400.376 119.414 394.98 130.913C389.584 142.413 399.326 160.016 410.825 165.412ZM408.064 171.297C423.563 178.57 442.024 171.901 449.297 156.402C456.57 140.903 449.901 122.442 434.402 115.169C418.903 107.896 400.442 114.565 393.169 130.064C385.896 145.563 392.565 164.024 408.064 171.297Z" fill="#DAC298"/>
<path fill-rule="evenodd" clip-rule="evenodd" d="M442.96 153.428C437.094 165.928 423.749 170.372 411.25 164.507C398.751 158.642 393.641 145.537 399.506 133.037C405.372 120.538 419.354 114.735 431.853 120.601C444.353 126.466 448.825 140.929 442.96 153.428ZM409.763 167.675C424.262 174.479 439.777 169.627 446.581 155.128C453.385 140.628 448.689 122.426 434.19 115.622C419.69 108.818 400.878 115.989 394.075 130.489C387.271 144.988 395.264 160.872 409.763 167.675ZM442.055 153.003C436.658 164.503 422.962 169.451 411.462 164.054C399.963 158.658 395.015 144.962 400.412 133.462C405.808 121.963 419.504 117.015 431.004 122.411C442.503 127.808 447.451 141.504 442.055 153.003ZM449.297 156.402C442.024 171.901 423.563 178.57 408.064 171.297C392.565 164.024 385.896 145.563 393.169 130.064C400.442 114.565 418.903 107.896 434.402 115.169C449.901 122.442 456.57 140.903 449.297 156.402Z" fill="#FFF1D9"/>
<path d="M258.591 97.7573L266.69 54.3518C266.913 53.1578 266.565 51.9133 265.745 50.9678L259.786 44.0973C259.169 43.386 258.328 42.8943 257.401 42.7038L245.452 40.2462C244.008 39.9492 242.811 38.9318 242.307 37.5734L241.635 35.7604C240.575 32.9029 236.826 32.0566 234.727 34.201L231.598 37.3969L227.86 41.0861C225.972 42.9496 222.729 42.4948 221.332 40.1707L220.461 38.7229C219.159 36.5574 216.214 35.9833 214.265 37.5149L212.622 38.8053C210.665 40.3429 207.707 39.7576 206.413 37.5765L204.896 35.0192C203.832 33.2271 201.347 32.8516 199.872 34.2602C198.616 35.459 196.566 35.3931 195.318 34.1136L193.084 31.8232C191.499 30.1975 188.904 30.0829 187.27 31.5665L178.534 39.4969C176.761 41.1059 173.902 40.8155 172.401 38.874L162.476 26.043C161.04 24.1871 158.344 23.8255 156.546 25.2477L153.549 27.6179C151.589 29.1679 148.617 28.58 147.324 26.3867L145.55 23.378C144.26 21.1889 141.295 20.5982 139.334 22.1395L127.067 31.7813C125.023 33.3874 121.921 32.6692 120.725 30.3132L113.816 16.6958C112.739 14.5724 110.065 13.7353 108.005 14.8762L102.376 17.9922C100.909 18.8042 99.0542 18.6362 97.7089 17.5696L86.9954 9.07507C85.5621 7.93862 83.5628 7.82948 82.0732 8.80638L69.7442 16.8916C68.1041 17.9672 65.8733 17.7154 64.4534 16.2944L49.9272 1.75721C48.6397 0.468806 46.6651 0.127566 45.0625 0.916559L3.14879 21.5524C0.833065 22.6926 0.246286 25.6558 1.93872 27.6633L32.6519 64.0948C33.2718 64.83 34.1289 65.3389 35.0754 65.5335L239.645 107.606C240.545 107.791 241.473 107.681 242.284 107.295L256.429 100.552C257.565 100.01 258.364 98.9782 258.591 97.7573Z" fill="#F3D8AB"/>
<path d="M258.591 97.7572C258.363 98.9781 257.565 100.01 256.429 100.552L241.825 107.408C244 110.5 249.259 112.279 249.259 112.279L259.94 107.818C263.276 106.228 265.724 103.136 266.427 99.3687L274.526 55.9633C275.213 52.2803 274.123 48.5266 271.711 45.7455L267.051 41.0631L258.768 42.9559L265.745 50.9677C266.565 51.9132 266.913 53.1577 266.69 54.3517L258.591 97.7572Z" fill="#FFECCC"/>
<path d="M259.94 107.818C263.276 106.228 265.724 103.136 266.427 99.369L274.526 55.9636C275.213 52.2807 274.123 48.5269 271.711 45.7458L267 41.0119L263.611 41.8471L269.538 47.7785C271.309 49.8642 272.094 52.6433 271.588 55.3592L263.489 98.7647C262.969 101.553 261.165 103.859 258.684 105.064L245.538 110.555L249.22 112.296L259.94 107.818Z" fill="#F3D8AB"/>
<mask id="mask0_287_9" style="mask-type:alpha" maskUnits="userSpaceOnUse" x="1" y="0" width="266" height="108">
<path d="M258.598 97.7213L266.683 54.388C266.91 53.1737 266.565 51.9126 265.748 50.9711L259.739 44.0431C259.152 43.3659 258.36 42.9011 257.49 42.7221L245.328 40.2208C243.958 39.9389 242.821 38.9588 242.33 37.6362L241.531 35.4806C240.503 32.7064 236.974 31.9063 234.938 33.9856L231.598 37.397L227.687 41.2572C225.862 43.0583 222.816 42.6398 221.472 40.4034L220.336 38.5139C219.085 36.4336 216.325 35.8967 214.45 37.3691L212.435 38.9521C210.553 40.4304 207.781 39.8826 206.538 37.7867L204.886 35.0033C203.814 33.1957 201.368 32.8319 199.874 34.2579C198.606 35.4694 196.589 35.4164 195.343 34.1386L192.923 31.6573C191.413 30.1092 188.979 30.0148 187.406 31.4433L178.378 39.6387C176.67 41.1889 173.989 40.9271 172.552 39.0698L162.333 25.8585C160.961 24.0851 158.436 23.7529 156.709 25.1186L153.362 27.7658C151.477 29.2564 148.691 28.7062 147.448 26.5981L145.426 23.1673C144.186 21.0633 141.407 20.5104 139.522 21.9923L126.867 31.9383C124.901 33.484 121.991 32.8071 120.838 30.536L113.721 16.5086C112.684 14.4648 110.182 13.671 108.212 14.7613L102.244 18.0653C100.849 18.8377 99.1158 18.685 97.8455 17.6778L86.8496 8.95937C85.4944 7.88488 83.6241 7.78944 82.2017 8.72221L69.5966 16.9886C68.0299 18.016 65.9439 17.7859 64.596 16.437L49.8004 1.6303C48.5804 0.4093 46.7371 0.092216 45.2151 0.841532L3.19693 21.5289C0.886672 22.6663 0.286665 25.7036 1.9763 27.7078L32.6987 64.1501C33.2893 64.8507 34.0957 65.3321 34.9853 65.515L239.732 107.624C240.576 107.797 241.449 107.693 242.221 107.325L256.435 100.549C257.565 100.01 258.367 98.9623 258.598 97.7213Z" fill="#FAE5C1"/>
</mask>
<g mask="url(#mask0_287_9)">
<rect width="249.723" height="4.52214" transform="matrix(0.977687 0.210067 -0.192692 0.981259 0.792297 28.7168)" fill="#DAC298"/>
<rect width="267.216" height="3.77257" transform="matrix(0.977687 0.210067 -0.192692 0.981259 2.57617 19.25)" fill="#D2B78A"/>
<rect width="268.738" height="1.16609" transform="matrix(0.977687 0.210067 -0.192692 0.981259 2.3801 20.249)" fill="#DAC298"/>
<rect width="268.334" height="2.55848" transform="matrix(0.977687 0.210067 -0.192692 0.981259 2.89328 15.1191)" fill="#D2B78A"/>
<rect width="268.184" height="0.86881" transform="matrix(0.977687 0.210067 -0.192692 0.981259 2.36923 17.9912)" fill="#FFF1D9"/>
<rect width="267.778" height="11.041" transform="matrix(0.977687 0.210067 -0.192692 0.981259 1.48685 25.1807)" fill="#D2B78A"/>
<rect width="269.07" height="1.3974" transform="matrix(0.977687 0.210067 -0.192692 0.981259 2.12784 23.4014)" fill="#FFF1D9"/>
<rect width="270.451" height="3.64041" transform="matrix(0.977687 0.210067 -0.192692 0.981259 3.46027 10.7705)" fill="#D2B78A"/>
<rect width="268.301" height="2.23386" transform="matrix(0.977687 0.210067 -0.192692 0.981259 3.9473 8.08789)" fill="#DAC298"/>
<rect width="249.723" height="2.23386" transform="matrix(0.977687 0.210067 -0.192692 0.981259 4.1265 4.45508)" fill="#FFF1D9"/>
<rect width="269.714" height="2.23386" transform="matrix(0.977687 0.210067 -0.192692 0.981259 4.1265 4.45508)" fill="#FFF1D9"/>
<rect width="268.732" height="3.96858" transform="matrix(0.977687 0.210067 -0.192692 0.981259 5.30963 -0.513672)" fill="#D2B78A"/>
<rect width="268.992" height="2.20779" transform="matrix(0.977687 0.210067 -0.192692 0.981259 5.96719 -4.06641)" fill="#DAC298"/>
</g>
<path d="M236.724 102.146L244.431 97.5293C244.704 97.3654 245.013 97.2693 245.331 97.2489L248.461 97.0492C248.808 97.027 249.144 96.9145 249.435 96.7227L256.607 91.9919C257.056 91.6959 257.367 91.2315 257.469 90.7037L259.825 78.5738C260.132 76.9897 258.534 75.7123 257.057 76.3615L230.74 87.928C230.366 88.0926 229.95 88.1384 229.548 88.0591L48.4502 52.2945C47.718 52.1499 46.9662 52.425 46.5003 53.008L40.9557 59.9457C40.0219 61.1141 40.6542 62.8566 42.12 63.1543L235.298 102.391C235.788 102.49 236.296 102.403 236.724 102.146Z" fill="#FFECCC"/>
<path d="M263.213 52.4471L258.019 46.3677C257.7 45.9943 257.255 45.7514 256.768 45.6852L241.386 43.591C239.382 43.3182 238.286 45.8518 239.856 47.1259L259.123 62.7567C260.308 63.7178 262.089 63.0521 262.353 61.5496L263.663 54.0922C263.766 53.5043 263.601 52.9009 263.213 52.4471Z" fill="#FFECCC"/>
<path fill-rule="evenodd" clip-rule="evenodd" d="M231.598 37.3969L227.86 41.0861C225.972 42.9496 222.729 42.4948 221.332 40.1707L220.461 38.7229C219.159 36.5574 216.214 35.9833 214.265 37.5149L212.622 38.8053C210.665 40.3429 207.707 39.7576 206.413 37.5765L204.896 35.0192C203.832 33.2271 201.347 32.8516 199.872 34.2602C198.616 35.459 196.566 35.3931 195.318 34.1136L193.084 31.8232C191.499 30.1975 188.904 30.0829 187.27 31.5665L178.534 39.4969C176.761 41.1059 173.902 40.8155 172.401 38.874L162.476 26.043C161.04 24.1871 158.344 23.8255 156.546 25.2477L153.549 27.6179C151.589 29.1679 148.617 28.58 147.324 26.3867L145.55 23.378C144.26 21.1889 141.295 20.5982 139.334 22.1395L127.067 31.7813C125.023 33.3874 121.921 32.6692 120.725 30.3132L113.816 16.6958C112.739 14.5724 110.065 13.7353 108.005 14.8762L102.376 17.9922C100.909 18.8042 99.0542 18.6362 97.7089 17.5696L86.9954 9.07507C85.5621 7.93862 83.5628 7.82948 82.0732 8.80638L69.7442 16.8916C68.1041 17.9672 65.8733 17.7154 64.4534 16.2944L49.9272 1.75721C48.6397 0.468806 46.6651 0.127566 45.0625 0.916559L3.14879 21.5524C0.833065 22.6926 0.246286 25.6558 1.93872 27.6633L32.6519 64.0948C33.2718 64.83 34.1289 65.3389 35.0754 65.5335L239.645 107.606C240.545 107.791 241.473 107.681 242.284 107.295L256.429 100.552C257.565 100.01 258.364 98.9782 258.591 97.7573L266.69 54.3518C266.913 53.1578 266.565 51.9133 265.745 50.9678L259.786 44.0973C259.169 43.386 258.328 42.8943 257.401 42.7038L245.452 40.2462C244.008 39.9492 242.811 38.9318 242.307 37.5734L241.635 35.7604C240.575 32.9029 236.826 32.0566 234.727 34.201L231.598 37.3969ZM264.185 52.2418L258.226 45.3713C257.918 45.0156 257.497 44.7698 257.034 44.6746L245.327 41.0157C243.161 40.5702 241.365 39.0442 240.61 37.0066L239.695 36.3948C239.165 34.966 237.533 33.3416 236.483 34.4138L233.343 37.6216L229.594 41.3224C226.762 44.1177 221.897 43.4356 219.801 39.9493L218.93 38.5016C218.279 37.4188 216.807 37.1318 215.832 37.8976L214.189 39.188C211.253 41.4943 206.817 40.6163 204.876 37.3447L203.358 34.7874C202.982 34.1537 202.104 34.021 201.582 34.519C199.515 36.4929 196.14 36.3842 194.085 34.2777L191.851 31.9873C191.058 31.1744 189.761 31.1172 188.944 31.859L180.208 39.7894C177.549 42.2029 173.261 41.7673 171.008 38.855L161.083 26.024C160.365 25.0961 159.017 24.9153 158.118 25.6263L154.879 29.1977C151.939 31.5228 147.723 29.4398 145.783 26.1497L144.01 23.1411C143.365 22.0465 141.882 21.7512 140.902 22.5218L128.635 32.1636C125.569 34.5728 120.915 33.4954 119.122 29.9615L112.213 16.3441C111.674 15.2824 110.338 14.8638 109.307 15.4343L103.679 18.5504C101.479 19.7683 98.6959 19.5163 96.678 17.9163L85.9645 9.42185C85.2479 8.85362 84.2482 8.79906 83.5034 9.2875L71.1745 17.3727C68.7143 18.9861 65.3681 18.6084 63.2382 16.4769L48.712 1.9397C48.0682 1.2955 47.0809 1.12488 46.2796 1.51938L4.12319 23.3565C2.96533 23.9266 2.67194 25.4082 3.51815 26.412L34.1307 64.1248C34.4406 64.4924 34.8691 64.7468 35.3424 64.8442L239.912 106.917C240.362 107.009 240.826 106.954 241.232 106.761L255.478 98.7365C256.046 98.4658 256.445 97.9497 256.559 97.3393L264.658 53.9338C264.769 53.3368 264.595 52.7145 264.185 52.2418Z" fill="#DAC298"/>
</g>
<g filter="url(#filter1_d_287_9)">
<path fill-rule="evenodd" clip-rule="evenodd" d="M334.5 330C393.871 330 442 281.871 442 222.5C442 163.129 393.871 115 334.5 115C275.129 115 227 163.129 227 222.5C227 281.871 275.129 330 334.5 330ZM389 245C406.121 245 420 231.121 420 214C420 196.879 406.121 183 389 183C371.879 183 358 196.879 358 214C358 231.121 371.879 245 389 245Z" fill="#999999"/>
<path fill-rule="evenodd" clip-rule="evenodd" d="M442 222.5C442 281.871 393.871 330 334.5 330C275.129 330 227 281.871 227 222.5C227 163.129 275.129 115 334.5 115C393.871 115 442 163.129 442 222.5ZM428 222.5C428 274.139 386.139 316 334.5 316C282.861 316 241 274.139 241 222.5C241 170.861 282.861 129 334.5 129C386.139 129 428 170.861 428 222.5Z" fill="white"/>
<path fill-rule="evenodd" clip-rule="evenodd" d="M334.5 323C388.348 323 429 276.348 429 222.5C429 168.652 388.348 128 334.5 128C287.197 128 250.824 159.371 242.5 203.5C242.388 204.096 242.273 204.694 242.159 205.295C241.098 210.847 240 216.594 240 222.5C240 241.06 244.83 258.765 253.364 274C269.591 302.965 299.212 323 334.5 323ZM334.5 316C386.139 316 428 274.139 428 222.5C428 170.861 386.139 129 334.5 129C289.372 129 251.71 160.972 242.932 203.5C241.665 209.635 241 215.99 241 222.5C241 241.53 244.736 259.232 254.5 274C271.232 299.307 301.891 316 334.5 316Z" fill="#666666"/>
<path fill-rule="evenodd" clip-rule="evenodd" d="M334.5 330C393.871 330 442 281.871 442 222.5C442 163.129 393.871 115 334.5 115C281.613 115 237.646 153.192 228.674 203.5C227.574 209.667 227 216.017 227 222.5C227 241.772 232.071 259.859 240.952 275.5C259.43 308.045 294.401 330 334.5 330ZM439.5 222.5C439.5 279.661 391.661 328.5 334.5 328.5C296.438 328.5 261.072 306.846 242.5 275.5C233.18 259.77 229 241.6 229 222.5C229 215.985 229.802 209.636 231 203.5C240.309 155.807 283.854 121 334.5 121C391.661 121 439.5 165.339 439.5 222.5Z" fill="#666666"/>
<path fill-rule="evenodd" clip-rule="evenodd" d="M326.091 308C371.84 308 425 257.889 425 216.635C425 175.381 371.84 137 326.091 137C280.342 137 255 187.111 255 228.365C255 269.618 280.342 308 326.091 308ZM389 245C406.121 245 420 231.121 420 214C420 196.879 406.121 183 389 183C371.879 183 358 196.879 358 214C358 231.121 371.879 245 389 245Z" fill="#D9D9D9"/>
<path d="M322.5 282.5C354.894 302.343 371.358 289.158 390.985 272.551C403.47 261.986 413.321 247.092 417.042 231.349C413.288 243.422 404.35 248.539 391.656 253.373C374.97 259.727 361.53 247.019 351.333 223.069C343.176 203.908 358.44 190.646 367.091 186.41C393.101 177.392 410.071 187.438 416.319 202.781C407.806 178.247 355.767 140.797 334 147C321.322 150.613 304.617 169.242 292 196.5C282.547 216.922 290.106 262.657 322.5 282.5Z" fill="#EEEEEE"/>
<path d="M320.989 158.301C300.735 174.115 305.182 187.672 311.047 204.044C316.912 220.416 331.099 235.204 348.262 236.592C350.928 236.807 354.083 236.393 357.516 235.481C355.337 231.788 353.276 227.632 351.333 223.068C343.176 203.908 358.44 190.645 367.091 186.409C381.619 181.372 393.326 182.283 401.92 186.742C398.707 178.652 392.099 168.899 382.702 159.38C372.008 148.548 341.243 142.487 320.989 158.301Z" fill="white"/>
<path fill-rule="evenodd" clip-rule="evenodd" d="M389 237C401.703 237 412 226.703 412 214C412 201.297 401.703 191 389 191C376.297 191 366 201.297 366 214C366 226.703 376.297 237 389 237ZM389 245C406.121 245 420 231.121 420 214C420 196.879 406.121 183 389 183C371.879 183 358 196.879 358 214C358 231.121 371.879 245 389 245Z" fill="#D9D9D9"/>
<path fill-rule="evenodd" clip-rule="evenodd" d="M389 238.5C401.703 238.5 416 226.703 416 214C416 201.297 401.703 185 389 185C376.297 185 360 201.297 360 214C360 226.703 376.297 238.5 389 238.5ZM389 245C406.121 245 420 231.121 420 214C420 196.879 406.121 183 389 183C371.879 183 358 196.879 358 214C358 231.121 371.879 245 389 245Z" fill="#666666"/>
<path fill-rule="evenodd" clip-rule="evenodd" d="M413 214C413 227.807 402.807 237.5 389 237.5C375.193 237.5 365 227.807 365 214C365 200.193 375.193 189 389 189C402.807 189 413 200.193 413 214ZM389 241C405.016 241 417 230.016 417 214C417 197.984 405.016 183.5 389 183.5C372.984 183.5 359 197.984 359 214C359 230.016 372.984 241 389 241ZM412 214C412 226.703 401.703 237 389 237C376.297 237 366 226.703 366 214C366 201.297 376.297 191 389 191C401.703 191 412 201.297 412 214ZM420 214C420 231.121 406.121 245 389 245C371.879 245 358 231.121 358 214C358 196.879 371.879 183 389 183C406.121 183 420 196.879 420 214Z" fill="#F7F7F7"/>
<path d="M265.532 253.594L254.424 210.859C254.119 209.684 253.276 208.705 252.131 208.197L243.818 204.509C242.957 204.127 241.987 204.039 241.067 204.26L229.205 207.112C227.772 207.457 226.256 207.044 225.223 206.028L223.844 204.672C221.671 202.536 217.918 203.362 216.928 206.195L215.453 210.418L213.637 215.345C212.719 217.834 209.59 218.8 207.338 217.29L205.935 216.349C203.836 214.942 200.926 215.673 199.812 217.888L198.873 219.754C197.754 221.977 194.828 222.704 192.73 221.279L190.27 219.609C188.546 218.438 186.137 219.154 185.4 221.056C184.773 222.674 182.889 223.485 181.215 222.857L178.22 221.733C176.094 220.935 173.696 221.933 172.847 223.971L168.307 234.861C167.386 237.071 164.675 238.022 162.49 236.903L148.055 229.503C145.967 228.433 143.373 229.251 142.349 231.302L140.643 234.721C139.527 236.957 136.586 237.687 134.484 236.251L131.6 234.281C129.502 232.847 126.568 233.572 125.447 235.8L118.438 249.74C117.27 252.062 114.156 252.73 112.073 251.105L100.033 241.712C98.1561 240.248 95.3803 240.625 93.9993 242.534L90.2276 247.746C89.2448 249.104 87.494 249.74 85.8231 249.346L72.5158 246.207C70.7355 245.787 68.8792 246.538 67.9456 248.055L60.2192 260.612C59.1913 262.282 57.0648 263.002 55.1757 262.319L35.8498 255.329C34.137 254.71 32.2044 255.24 31.0889 256.635L1.91141 293.121C0.299361 295.137 1.02697 298.069 3.41192 299.168L46.6925 319.101C47.566 319.503 48.558 319.6 49.4976 319.374L252.564 270.558C253.457 270.343 254.25 269.85 254.82 269.156L264.761 257.042C265.56 256.069 265.844 254.796 265.532 253.594Z" fill="#D9D9D9"/>
<path d="M271.026 262.13L258 276.5L254 270L264.761 257.043C265.56 256.07 265.844 254.797 265.532 253.595L254.424 210.86C254.119 209.684 253.276 208.705 252.131 208.198L242.5 204L244.5 197L255.314 200.936C258.679 202.429 261.26 205.364 262.203 208.99L273.31 251.725C274.274 255.433 273.371 259.273 271.026 262.13Z" fill="#EEEEEE"/>
<path d="M271.026 262.129C273.371 259.272 274.274 255.433 273.31 251.724L262.203 208.989C261.26 205.363 258.679 202.428 255.314 200.935L244.5 196.999L243.5 200L246.529 200.903L254.21 203.699C256.699 204.834 258.591 207.017 259.286 209.691L270.393 252.425C271.107 255.17 270.453 258.024 268.719 260.17L258.436 271.514L256.5 274L258 276.499L271.026 262.129Z" fill="#D9D9D9"/>
<mask id="mask1_287_9" style="mask-type:alpha" maskUnits="userSpaceOnUse" x="1" y="203" width="265" height="117">
<path d="M265.522 253.558L254.434 210.894C254.123 209.699 253.275 208.704 252.135 208.198L243.752 204.479C242.933 204.116 242.019 204.031 241.155 204.239L229.083 207.141C227.722 207.468 226.277 207.064 225.271 206.075L223.632 204.463C221.522 202.388 217.987 203.163 217.028 205.91L215.453 210.418L213.553 215.573C212.666 217.979 209.731 218.894 207.563 217.441L205.732 216.213C203.716 214.861 200.989 215.547 199.918 217.677L198.766 219.966C197.691 222.103 194.948 222.785 192.932 221.416L190.255 219.598C188.516 218.417 186.147 219.127 185.401 221.052C184.767 222.688 182.919 223.497 181.248 222.869L178.003 221.651C175.978 220.891 173.735 221.839 172.918 223.801L168.226 235.055C167.339 237.184 164.8 238.086 162.711 237.015L147.847 229.396C145.852 228.374 143.425 229.146 142.442 231.115L140.536 234.934C139.463 237.084 136.707 237.77 134.687 236.389L131.398 234.142C129.382 232.764 126.631 233.444 125.554 235.587L118.324 249.966C117.2 252.201 114.278 252.825 112.27 251.258L99.8679 241.583C98.0609 240.173 95.4581 240.518 94.1384 242.341L90.1392 247.868C89.2043 249.159 87.5704 249.758 85.9925 249.385L72.3345 246.164C70.6512 245.767 68.9175 246.475 68.0261 247.924L60.1265 260.762C59.1447 262.358 57.1586 263.035 55.3653 262.387L35.6811 255.268C34.0579 254.681 32.2545 255.177 31.195 256.502L1.94484 293.079C0.336591 295.09 1.08369 298.095 3.4647 299.192L46.7582 319.131C47.5905 319.514 48.525 319.607 49.4081 319.395L252.65 270.537C253.488 270.336 254.234 269.87 254.776 269.209L264.766 257.036C265.56 256.069 265.84 254.78 265.522 253.558Z" fill="#FAE5C1"/>
</mask>
<g mask="url(#mask1_287_9)">
<rect width="249.723" height="4.52214" transform="matrix(0.974322 -0.22516 0.242408 0.970174 2.82172 300.608)" fill="#666666"/>
<rect width="267.216" height="3.77257" transform="matrix(0.974322 -0.22516 0.242408 0.970174 0.414917 291.28)" fill="#999999"/>
<rect width="268.738" height="1.16609" transform="matrix(0.974322 -0.22516 0.242408 0.970174 0.661682 292.268)" fill="#666666"/>
<rect width="268.334" height="2.55848" transform="matrix(0.974322 -0.22516 0.242408 0.970174 -1.05267 287.406)" fill="#999999"/>
<rect width="268.184" height="0.86881" transform="matrix(0.974322 -0.22516 0.242408 0.970174 -0.30719 290.229)" fill="white"/>
<rect width="267.778" height="11.041" transform="matrix(0.974322 -0.22516 0.242408 0.970174 1.94836 297.112)" fill="#999999"/>
<rect width="269.07" height="1.3974" transform="matrix(0.974322 -0.22516 0.242408 0.970174 1.77246 295.229)" fill="white"/>
<rect width="270.451" height="3.64041" transform="matrix(0.974322 -0.22516 0.242408 0.970174 -2.38678 283.229)" fill="#999999"/>
<rect width="268.301" height="2.23386" transform="matrix(0.974322 -0.22516 0.242408 0.970174 -3.08563 280.593)" fill="#666666"/>
<rect width="249.723" height="2.23386" transform="matrix(0.974322 -0.22516 0.242408 0.970174 -4.46643 277.229)" fill="white"/>
<rect width="269.714" height="2.23386" transform="matrix(0.974322 -0.22516 0.242408 0.970174 -4.46643 277.229)" fill="white"/>
<rect width="268.732" height="3.96858" transform="matrix(0.974322 -0.22516 0.242408 0.970174 -5.50623 272.228)" fill="#999999"/>
<rect width="268.992" height="2.20779" transform="matrix(0.974322 -0.22516 0.242408 0.970174 -6.42041 268.731)" fill="#666666"/>
</g>
<path d="M247.6 266.856L252.615 259.403C252.793 259.138 253.032 258.92 253.311 258.766L256.06 257.256C256.365 257.088 256.621 256.844 256.803 256.547L261.286 249.217C261.566 248.759 261.65 248.206 261.519 247.685L258.499 235.703C258.104 234.138 256.115 233.661 255.053 234.876L236.143 256.527C235.874 256.835 235.516 257.053 235.119 257.152L55.9813 301.707C55.2571 301.887 54.6934 302.455 54.5193 303.181L52.447 311.817C52.098 313.271 53.4106 314.58 54.864 314.227L246.413 267.683C246.898 267.565 247.322 267.27 247.6 266.856Z" fill="#EEEEEE"/>
<path d="M250.468 210.611L243.183 207.314C242.735 207.112 242.229 207.081 241.76 207.228L226.945 211.867C225.015 212.471 225.099 215.23 227.062 215.717L251.144 221.682C252.625 222.049 253.955 220.69 253.555 219.217L251.573 211.91C251.417 211.334 251.011 210.857 250.468 210.611Z" fill="#EEEEEE"/>
<path fill-rule="evenodd" clip-rule="evenodd" d="M215.453 210.418L213.637 215.345C212.719 217.834 209.59 218.8 207.338 217.29L205.935 216.349C203.836 214.942 200.926 215.673 199.812 217.888L198.873 219.754C197.754 221.977 194.828 222.704 192.73 221.279L190.27 219.609C188.546 218.438 186.137 219.154 185.4 221.056C184.773 222.674 182.889 223.485 181.215 222.857L178.22 221.733C176.094 220.935 173.696 221.933 172.847 223.971L168.307 234.861C167.386 237.071 164.675 238.022 162.49 236.903L148.055 229.503C145.967 228.433 143.373 229.251 142.349 231.302L140.643 234.721C139.527 236.957 136.586 237.687 134.484 236.251L131.6 234.281C129.502 232.847 126.568 233.572 125.447 235.8L118.438 249.74C117.27 252.062 114.156 252.73 112.073 251.105L100.033 241.712C98.1561 240.248 95.3803 240.625 93.9993 242.534L90.2276 247.746C89.2448 249.104 87.494 249.74 85.8231 249.346L72.5158 246.207C70.7355 245.787 68.8792 246.538 67.9456 248.055L60.2192 260.612C59.1913 262.282 57.0648 263.002 55.1757 262.319L35.8498 255.329C34.137 254.71 32.2044 255.24 31.0889 256.635L1.91141 293.121C0.299361 295.137 1.02697 298.069 3.41192 299.168L46.6925 319.101C47.566 319.503 48.558 319.6 49.4976 319.374L252.564 270.558C253.457 270.343 254.25 269.85 254.82 269.156L264.761 257.042C265.56 256.069 265.844 254.796 265.532 253.594L254.424 210.859C254.119 209.684 253.276 208.705 252.131 208.197L243.818 204.509C242.957 204.127 241.987 204.039 241.067 204.26L229.205 207.112C227.772 207.457 226.256 207.044 225.223 206.028L223.844 204.672C221.671 202.536 217.918 203.362 216.928 206.195L215.453 210.418ZM251.26 210.013L242.947 206.325C242.517 206.134 242.031 206.09 241.572 206.201L229.419 207.862C227.269 208.379 224.995 207.76 223.446 206.236L222.358 206.071C221.271 205.002 219.104 204.225 218.609 205.642L217.128 209.88L215.306 214.823C213.93 218.556 209.236 220.006 205.858 217.74L204.455 216.799C203.405 216.095 201.951 216.461 201.393 217.568L200.454 219.435C198.776 222.77 194.387 223.859 191.24 221.722L188.78 220.052C188.17 219.638 187.318 219.891 187.058 220.563C186.025 223.228 182.923 224.564 180.169 223.53L177.173 222.405C176.11 222.006 174.911 222.506 174.487 223.524L169.947 234.415C168.566 237.729 164.498 239.156 161.222 237.477L146.786 230.077C145.742 229.542 144.445 229.951 143.933 230.977L142.518 235.586C140.844 238.94 136.142 238.845 132.989 236.691L130.105 234.72C129.056 234.004 127.589 234.366 127.029 235.48L120.019 249.42C118.268 252.903 113.597 253.905 110.472 251.467L98.4328 242.075C97.4941 241.343 96.1062 241.531 95.4157 242.486L91.644 247.698C90.1698 249.735 87.5436 250.689 85.0371 250.098L71.7299 246.959C70.8397 246.749 69.9116 247.124 69.4448 247.883L61.7183 260.44C60.1765 262.945 56.9868 264.025 54.1531 263L34.8273 256.011C33.9709 255.701 33.0046 255.966 32.4468 256.663L3.5599 294.341C2.75388 295.349 3.11768 296.815 4.31015 297.364L48.0439 318.5C48.4806 318.701 48.9767 318.749 49.4464 318.636L252.513 269.821C252.959 269.713 253.356 269.467 253.641 269.119L263.129 255.803C263.528 255.317 263.67 254.68 263.514 254.079L252.407 211.344C252.254 210.756 251.832 210.267 251.26 210.013Z" fill="#666666"/>
</g>
<path d="M385.504 220.002C393.817 266.526 430.221 307.114 481.477 320.622C548.041 338.164 615.321 303.622 635.258 243L625.098 240.261C607.539 289.148 543.553 316.437 486.54 301.412C444.39 290.304 410.323 257.195 398.986 220.002L385.504 220.002Z" fill="#999999"/>
<path d="M575.195 295.991C548.622 308.548 515.967 314.029 485.5 306C455.033 297.971 428.997 277.022 412.064 253.001C403.876 241.384 397.334 228.413 393.583 215L397.603 215C407.297 254.195 442.507 289.807 486.537 301.41C543.554 316.436 607.545 289.142 625.099 240.248L630.155 241.657C621.356 266.167 599.813 284.358 575.195 295.991Z" fill="#666666"/>
<path d="M481.474 320.62C428.39 306.631 391.235 263.594 384.719 215L389.355 215C394.961 262.564 429.922 304.921 482.06 318.661C547.455 335.895 611.216 301.027 630.267 241.657L635.254 243C615.316 303.621 548.037 338.162 481.474 320.62Z" fill="#666666"/>
<path d="M404.164 242.321C420.456 274.313 449.728 297.25 486.006 306.811C528.148 317.917 575.757 304.831 605.669 276.853C605.963 276.578 606.423 276.588 606.704 276.877C606.976 277.157 606.984 277.601 606.716 277.887C577.874 308.743 530.658 329.062 482.033 316.247C440.171 305.215 414.032 278.101 400.73 243.801C400.376 242.888 400.8 241.86 401.689 241.45C402.611 241.026 403.703 241.416 404.164 242.321Z" fill="#D9D9D9"/>
<path d="M458.717 305.75C451.963 303.366 438.023 291.512 431.898 285.883C431.07 283.235 430.606 279.129 435.374 283.897C441.334 289.857 463.187 300.286 469.147 303.266C475.107 306.246 502.423 315.683 491.993 316.179C481.563 316.676 467.16 308.73 458.717 305.75Z" fill="#E6E6E6"/>
<g filter="url(#filter2_d_287_9)">
<path fill-rule="evenodd" clip-rule="evenodd" d="M113.446 47.4736L116.096 47.1212C118.395 46.8156 120.604 46.4288 123.129 45.9866C123.636 45.8978 124.156 45.8068 124.692 45.7138C127.714 45.189 131.23 44.6043 134.862 44.2904C142.387 43.6401 151.194 44.0696 160.403 48.5622C168.251 52.3909 174.719 57.4763 179.666 64.2887C184.519 70.9733 187.276 78.4568 189.021 86.1519C189.758 89.4035 189.992 92.2664 190.088 94.5243C190.112 95.0889 190.128 95.6414 190.14 96.1452C193.487 96.4493 198.431 97.2943 203.685 100.077L196.195 114.216C192.525 112.272 189.387 112.104 186.568 111.953C183.241 111.774 180.359 111.62 177.569 108.598C174.307 105.066 174.241 101.582 174.164 97.476C174.119 95.1261 174.071 92.5726 173.417 89.6898C170.532 76.9631 165.116 68.664 153.387 62.9421C144.317 58.517 135.515 60.0599 125.973 61.7323C123.442 62.1759 120.859 62.6287 118.205 62.9816C79.2034 82.4662 33.6329 123.618 21.2946 139.27C8.95637 154.923 28.9393 183.299 43.8009 186.508C49.6986 187.849 54.6233 187.726 58.7941 187.622C64.8604 187.47 69.3321 187.359 72.8841 191.852C76.1431 195.975 75.4374 199.578 74.5254 204.233C73.7601 208.141 72.8495 212.789 74.0149 219.109C76.5691 232.96 94.8737 264.911 112.493 254.345C113.432 253.782 114.36 253.225 115.278 252.675C160.128 225.789 180.094 213.82 213.102 172.795C220.411 163.711 224.781 146.771 217.27 134.667C210.388 123.579 207.727 120.325 196.195 114.216L203.685 100.077C209.954 103.398 215.144 106.621 219.783 111.253C224.228 115.693 227.484 120.784 230.864 126.23C237.163 136.379 238.034 147.775 236.554 157.315C235.083 166.803 231.089 175.963 225.568 182.825C190.767 226.078 168.802 239.245 123.631 266.323C122.672 266.898 121.702 267.479 120.721 268.067C111.476 273.611 101.67 273.446 93.3662 270.061C85.7952 266.974 79.7857 261.419 75.3842 256.211C66.7108 245.948 60.1214 231.995 58.2802 222.011C56.8497 214.253 57.5885 207.903 58.3434 203.652C54.1323 203.756 47.5476 203.758 40.3294 202.127C32.9788 200.515 26.5495 196.294 21.6418 191.926C16.5186 187.366 11.9039 181.63 8.39922 175.393C2.05125 164.097 -3.59679 145.002 8.72902 129.365C15.9517 120.202 31.4578 105.149 49.5745 90.2164C67.8338 75.1661 90.0305 59.1716 111.055 48.6683L113.446 47.4736Z" fill="#333333"/>
</g>
<g filter="url(#filter3_d_287_9)">
<path d="M151.65 116.413L158.582 110.818L169.772 124.681L162.841 130.276L151.65 116.413ZM139.124 115.077L146.055 109.482L151.65 116.413L137.787 127.603L132.192 120.672L139.124 115.077ZM155.909 135.871L162.841 130.276L168.436 137.208L161.504 142.803L154.573 148.398L148.978 141.467L155.909 135.871ZM112.734 124.931L126.597 113.74L132.192 120.672L125.261 126.267L118.329 131.862L112.734 124.931ZM147.641 153.993L154.573 148.398L160.168 155.33L146.305 166.52L140.71 159.589L147.641 153.993ZM82.0851 115.326L76.49 108.394L90.3532 97.2041L112.734 124.931L105.802 130.526L100.207 123.594L94.6119 116.662L89.0167 109.731L82.0851 115.326ZM139.373 172.115L146.305 166.52L168.685 194.247L154.822 205.437L149.227 198.505L156.159 192.91L150.563 185.978L144.968 179.047L139.373 172.115ZM110.061 149.984L116.992 144.389L128.183 158.252L121.251 163.847L110.061 149.984ZM80.7487 127.853L75.1535 120.921L82.0851 115.326L87.6803 122.258L80.7487 127.853ZM97.5341 148.648L104.466 143.052L110.061 149.984L103.129 155.579L97.5341 148.648ZM114.32 169.442L121.251 163.847L126.846 170.779L119.915 176.374L114.32 169.442ZM136.7 197.169L143.632 191.574L149.227 198.505L142.295 204.1L136.7 197.169ZM66.8855 139.043L80.7487 127.853L86.3438 134.784L79.4122 140.38L72.4806 145.975L66.8855 139.043ZM96.1977 161.174L103.129 155.579L114.32 169.442L107.388 175.038L96.1977 161.174ZM124.173 195.832L131.105 190.237L136.7 197.169L122.837 208.359L117.242 201.427L124.173 195.832ZM54.3587 137.707L61.2903 132.111L66.8855 139.043L59.9539 144.638L54.3587 137.707ZM82.3345 172.365L89.2661 166.769L100.456 180.633L93.5248 186.228L84.1995 174.675L82.3345 172.365ZM115.905 213.954L122.837 208.359L128.432 215.291L121.501 220.886L115.905 213.954ZM27.9688 147.56L48.7636 130.775L54.3587 137.707L40.4955 148.897L57.281 169.692L50.3494 175.287L27.9688 147.56ZM69.8077 171.028L76.7393 165.433L82.3345 172.365L80.0239 174.23L69.8077 171.028ZM92.1883 198.755L86.5932 191.823L93.5248 186.228L99.1199 193.159L92.1883 198.755ZM114.569 226.481L121.501 220.886L127.096 227.817L106.301 244.603L83.9203 216.876L90.8519 211.281L107.637 232.076L114.569 226.481ZM57.281 169.692L64.2126 164.097L69.8077 171.028L62.8761 176.623L57.281 169.692ZM90.8519 211.281L85.2567 204.35L92.1883 198.755L97.7835 205.686L90.8519 211.281Z" fill="#281384"/>
<path d="M143.382 134.535L150.314 128.94L155.909 135.871L148.978 141.467L143.382 134.535ZM118.329 131.862L125.261 126.267L130.856 133.199L116.992 144.389L111.397 137.457L118.329 131.862ZM128.183 158.252L135.114 152.657L140.71 159.589L133.778 165.184L128.183 158.252ZM87.6803 122.258L94.6119 116.662L100.207 123.594L93.2754 129.189L87.6803 122.258ZM98.8706 136.121L105.802 130.526L111.397 137.457L104.466 143.052L98.8706 136.121ZM126.846 170.779L133.778 165.184L139.373 172.115L132.441 177.71L126.846 170.779ZM138.037 184.642L144.968 179.047L150.563 185.978L143.632 191.574L138.037 184.642ZM79.4122 140.38L86.3438 134.784L91.939 141.716L85.0074 147.311L79.4122 140.38ZM90.6025 154.243L97.5341 148.648L103.129 155.579L96.1977 161.174L90.6025 154.243ZM107.388 175.038L114.32 169.442L119.915 176.374L112.983 181.969L107.388 175.038ZM118.578 188.901L125.51 183.306L131.105 190.237L124.173 195.832L118.578 188.901ZM71.1442 158.501L85.0074 147.311L90.6025 154.243L76.7393 165.433L71.1442 158.501ZM89.2661 166.769L96.1977 161.174L107.388 175.038L100.456 180.633L89.2661 166.769ZM99.1199 193.159L112.983 181.969L118.578 188.901L104.715 200.091L99.1199 193.159ZM64.2126 164.097L53.0223 150.233L59.9539 144.638L65.549 151.57L71.1442 158.501L64.2126 164.097ZM97.7835 205.686L104.715 200.091L110.31 207.023L103.379 212.618L97.7835 205.686ZM108.974 219.549L115.905 213.954L121.501 220.886L114.569 226.481L108.974 219.549Z" fill="#E366D6"/>
<path d="M132.192 120.672L137.787 127.603L151.65 116.413L162.841 130.276L155.909 135.871L150.314 128.94L143.382 134.535L136.451 140.13L142.046 147.062L135.114 152.657L128.183 158.252L116.992 144.389L130.856 133.199L125.261 126.267L132.192 120.672ZM142.046 147.062L148.978 141.467L154.573 148.398L147.641 153.993L142.046 147.062ZM133.778 165.184L140.71 159.589L146.305 166.52L139.373 172.115L133.778 165.184ZM82.0851 115.326L89.0167 109.731L94.6119 116.662L87.6803 122.258L82.0851 115.326ZM104.466 143.052L111.397 137.457L116.992 144.389L110.061 149.984L104.466 143.052ZM121.251 163.847L128.183 158.252L133.778 165.184L126.846 170.779L121.251 163.847ZM143.632 191.574L150.563 185.978L156.159 192.91L149.227 198.505L143.632 191.574ZM80.7487 127.853L87.6803 122.258L93.2754 129.189L98.8706 136.121L104.466 143.052L97.5341 148.648L90.6025 154.243L85.0074 147.311L91.939 141.716L86.3438 134.784L80.7487 127.853ZM119.915 176.374L126.846 170.779L132.441 177.71L138.037 184.642L143.632 191.574L136.7 197.169L131.105 190.237L125.51 183.306L118.578 188.901L112.983 181.969L119.915 176.374ZM76.7393 165.433L90.6025 154.243L96.1977 161.174L89.2661 166.769L82.3345 172.365L76.7393 165.433ZM100.456 180.633L107.388 175.038L112.983 181.969L99.1199 193.159L93.5248 186.228L100.456 180.633ZM59.9539 144.638L66.8855 139.043L72.4806 145.975L65.549 151.57L59.9539 144.638ZM110.31 207.023L117.242 201.427L122.837 208.359L115.905 213.954L110.31 207.023ZM57.281 169.692L40.4955 148.897L54.3587 137.707L59.9539 144.638L53.0223 150.233L64.2126 164.097L57.281 169.692ZM64.2126 164.097L71.1442 158.501L76.7393 165.433L69.8077 171.028L64.2126 164.097ZM92.1883 198.755L99.1199 193.159L104.715 200.091L97.7835 205.686L92.1883 198.755ZM90.8519 211.281L97.7835 205.686L103.379 212.618L108.974 219.549L114.569 226.481L107.637 232.076L90.8519 211.281Z" fill="#7F13D9"/>
<path d="M142.046 147.062L136.451 140.13L143.382 134.535L148.978 141.467L142.046 147.062ZM135.114 152.657L142.046 147.062L147.641 153.993L140.71 159.589L135.114 152.657ZM105.802 130.526L112.734 124.931L118.329 131.862L111.397 137.457L105.802 130.526ZM93.2754 129.189L100.207 123.594L105.802 130.526L98.8706 136.121L93.2754 129.189ZM132.441 177.71L139.373 172.115L144.968 179.047L138.037 184.642L132.441 177.71ZM72.4806 145.975L79.4122 140.38L85.0074 147.311L71.1442 158.501L65.549 151.57L72.4806 145.975ZM104.715 200.091L118.578 188.901L124.173 195.832L117.242 201.427L110.31 207.023L104.715 200.091ZM82.3345 172.365L84.1995 174.675L81.889 176.54L80.0239 174.23L82.3345 172.365ZM103.379 212.618L110.31 207.023L115.905 213.954L108.974 219.549L103.379 212.618Z" fill="#E89F2B"/>
<path d="M130.606 76.16L137.538 70.5648L143.133 77.4964L136.201 83.0916L130.606 76.16ZM192.153 152.408L199.085 146.812L204.68 153.744L197.748 159.339L192.153 152.408ZM122.338 94.2819L102.88 98.5406L97.2848 91.609L125.011 69.2284L130.606 76.16L116.743 87.3503L122.338 94.2819ZM146.055 109.482L152.987 103.886L158.582 110.818L151.65 116.413L146.055 109.482ZM162.841 130.276L169.772 124.681L175.368 131.613L168.436 137.208L162.841 130.276ZM178.29 163.598L183.885 170.529L197.748 159.339L203.343 166.271L175.617 188.651L170.022 181.72L178.29 163.598ZM122.338 94.2819L129.27 88.6867L134.865 95.6183L127.933 101.213L122.338 94.2819ZM172.695 156.666L179.626 151.071L185.221 158.003L178.29 163.598L172.695 156.666Z" fill="#25573F"/>
<path d="M143.133 77.4964L150.065 71.9013L166.85 92.6961L159.919 98.2912L154.323 91.3596L148.728 84.428L143.133 77.4964ZM182.299 126.018L189.231 120.422L206.016 141.217L199.085 146.812L193.489 139.881L187.894 132.949L182.299 126.018ZM152.987 103.886L159.919 98.2912L165.514 105.223L158.582 110.818L152.987 103.886ZM169.772 124.681L176.704 119.086L182.299 126.018L175.368 131.613L169.772 124.681ZM127.933 101.213L134.865 95.6183L146.055 109.482L139.124 115.077L127.933 101.213ZM161.504 142.803L168.436 137.208L179.626 151.071L172.695 156.666L161.504 142.803Z" fill="#18143B"/>
<path d="M141.797 90.0232L148.728 84.428L154.323 91.3596L147.392 96.9548L141.797 90.0232ZM186.558 145.476L180.963 138.544L187.894 132.949L193.489 139.881L186.558 145.476ZM129.27 88.6867L136.201 83.0916L141.797 90.0232L134.865 95.6183L129.27 88.6867ZM179.626 151.071L186.558 145.476L192.153 152.408L185.221 158.003L179.626 151.071Z" fill="#27B1D1"/>
<path d="M136.201 83.0916L143.133 77.4964L148.728 84.428L141.797 90.0232L136.201 83.0916ZM186.558 145.476L193.489 139.881L199.085 146.812L192.153 152.408L186.558 145.476ZM122.338 94.2819L116.743 87.3503L130.606 76.16L136.201 83.0916L129.27 88.6867L122.338 94.2819ZM185.221 158.003L192.153 152.408L197.748 159.339L183.885 170.529L178.29 163.598L185.221 158.003Z" fill="#22FD8A"/>
<path d="M141.797 90.0232L147.392 96.9548L154.323 91.3596L159.919 98.2912L152.987 103.886L146.055 109.482L134.865 95.6183L141.797 90.0232ZM175.368 131.613L182.299 126.018L187.894 132.949L180.963 138.544L186.558 145.476L179.626 151.071L168.436 137.208L175.368 131.613Z" fill="#257C88"/>
</g>
<g opacity="0.5">
<path d="M170.505 67.4754C165.286 50.7042 156.936 49.978 131.767 51.9209C106.598 53.8638 69.8054 84.4662 54.9528 103.085C44.7692 119.654 45.1865 126.217 56.1217 134.055C67.0569 141.892 81.5051 133.089 91.403 122.213C101.301 111.338 103.885 97.4596 119.953 91.3724C136.022 85.2853 138.011 92.0147 150.816 89.7152C163.621 87.4157 175.723 84.2465 170.505 67.4754Z" fill="white"/>
<path d="M74.6611 206.335C82.9681 196.137 90.1255 208.538 103.663 213.828C117.2 219.119 123.807 214.499 128.092 220.735C132.377 226.971 134.735 236.296 125.351 246.793C115.966 257.29 99.8318 254.345 83.1587 241.106C66.4856 227.868 66.3541 216.533 74.6611 206.335Z" fill="white"/>
</g>
<circle cx="184" cy="102" r="2.5" stroke="#E6E6E6"/>
<g filter="url(#filter4_d_287_9)">
<mask id="path-74-inside-1_287_9" fill="white">
<path fill-rule="evenodd" clip-rule="evenodd" d="M240.499 96.9749C238.016 97.7925 235.083 97.8633 232.216 97.2411C229.349 96.619 226.709 95.339 224.788 93.5657C224.623 93.4136 224.459 93.2529 224.297 93.0841C223.451 94.8427 221.964 96.1444 220.538 96.9831C218.285 98.3087 215.434 98.9998 212.5 98.9998C209.566 98.9998 206.715 98.3087 204.462 96.9831C204.153 96.8019 203.843 96.5991 203.536 96.3747C203.281 97.0446 202.963 97.6668 202.62 98.221C202.41 98.559 202.182 98.8903 201.936 99.2141L198 97.6726C199.868 95.7161 200.642 93.4738 199.775 91.8268C198.488 89.3834 194.078 89.1754 189.924 91.3623C185.77 93.5493 183.446 97.303 184.732 99.7464C184.929 100.12 185.199 100.442 185.529 100.71C185.529 100.71 186.5 102.5 185.401 103.447C184 104.654 182.635 103.5 182.635 103.5C182.079 102.983 181.587 102.359 181.193 101.61C179.619 98.6215 180.567 95.4838 181.887 93.3522C183.264 91.1294 185.465 89.1896 188.061 87.8229C190.657 86.4562 193.502 85.7395 196.113 85.8626C197.543 85.93 199.174 86.283 200.604 87.1296C201.43 85.2622 202.978 83.8889 204.462 83.0166C206.715 81.6909 209.566 80.9998 212.5 80.9998C215.434 80.9998 218.285 81.6909 220.538 83.0166C221.159 83.3814 221.79 83.8338 222.376 84.3734C223.462 81.9652 225.735 80.5799 227.749 79.9168C230.233 79.0992 233.166 79.0284 236.033 79.6505C238.9 80.2726 241.54 81.5526 243.461 83.3259C244.206 84.0141 244.937 84.8773 245.496 85.88C246.867 84.4529 248.719 83.6829 250.358 83.3424C252.918 82.8107 255.84 83.0719 258.619 84.0141C261.397 84.9563 263.875 86.5265 265.584 88.5056C266.322 89.3614 267.019 90.4311 267.461 91.6411C267.531 91.5846 267.602 91.5295 267.672 91.4757C269.749 89.8883 272.497 88.8588 275.409 88.5054C278.321 88.152 281.235 88.4946 283.632 89.5391C284.819 90.0562 286.076 90.8503 287.071 91.9589C288.544 89.8161 290.979 88.8418 293.049 88.5216C295.633 88.122 298.538 88.5328 301.264 89.6163C303.991 90.6999 306.385 92.3952 307.99 94.4594C308.759 95.4494 309.463 96.6995 309.818 98.0945C312.035 97.0986 314.689 96.6678 317.379 96.823C320.308 96.9919 323.114 97.8461 325.288 99.2992C327.039 100.47 328.846 102.397 329.263 104.983C330.57 104.541 331.938 104.434 333.14 104.513C335.749 104.684 338.496 105.716 340.922 107.366C343.348 109.016 345.317 111.19 346.435 113.554C346.864 114.461 347.216 115.522 347.362 116.648C349.488 115.61 352.039 115.083 354.652 115.105C357.585 115.13 360.431 115.845 362.673 117.19C362.927 117.342 363.183 117.51 363.437 117.692C364.018 115.03 366.05 113.195 367.953 112.153C370.246 110.898 373.117 110.295 376.05 110.385C378.982 110.476 381.81 111.255 384.022 112.649C384.733 113.097 385.455 113.665 386.098 114.35C387.99 111.65 391.142 111.014 393.608 111.16C396.218 111.314 398.97 112.328 401.407 113.962C403.844 115.596 405.827 117.758 406.96 120.114C407.412 121.054 407.782 122.16 407.924 123.334C408.847 123.151 409.767 123.11 410.608 123.159C411.306 123.2 412.014 123.303 412.723 123.463L409.616 127.145C408.603 127.189 407.718 127.456 407.054 127.951C406.968 128.101 406.875 128.25 406.776 128.399C406.538 128.754 406.278 129.075 406.001 129.365C405.16 131.705 407.064 135.211 410.61 137.589C414.508 140.204 418.916 140.464 420.454 138.17C421.133 137.158 421.139 135.817 420.599 134.409L423.643 131.5C423.755 131.703 423.861 131.907 423.96 132.114C425.047 134.373 425.657 137.593 423.776 140.398C421.895 143.203 418.684 143.861 416.181 143.713C413.571 143.559 410.818 142.545 408.382 140.911C405.945 139.277 403.962 137.115 402.829 134.759C402.377 133.819 402.007 132.713 401.865 131.539C400.942 131.722 400.022 131.763 399.181 131.714C396.571 131.559 393.818 130.545 391.382 128.911C389.43 127.603 387.77 125.956 386.604 124.142C385.739 125.211 384.645 126.032 383.591 126.609C381.298 127.865 378.426 128.467 375.494 128.377C372.562 128.286 369.733 127.508 367.522 126.113C367.317 125.984 367.112 125.845 366.908 125.697C366.335 128.276 364.392 130.096 362.555 131.156C360.29 132.463 357.433 133.13 354.5 133.105C351.566 133.08 348.721 132.365 346.478 131.02C344.49 129.828 342.39 127.724 342.108 124.744C340.909 125.093 339.676 125.175 338.581 125.103C335.972 124.932 333.226 123.9 330.8 122.25C328.374 120.6 326.405 118.426 325.287 116.062C324.897 115.24 324.572 114.291 324.406 113.282C322.093 114.448 319.239 114.96 316.342 114.793C313.413 114.624 310.607 113.77 308.433 112.317C306.774 111.207 305.065 109.419 304.535 107.035C303.958 107.222 303.382 107.353 302.831 107.438C300.247 107.838 297.343 107.427 294.616 106.344C291.89 105.26 289.496 103.565 287.891 101.501C287.782 101.36 287.674 101.214 287.568 101.064C286.92 102.004 286.116 102.791 285.314 103.404C283.237 104.991 280.49 106.021 277.577 106.374C274.665 106.728 271.751 106.385 269.354 105.341C267.417 104.496 265.29 102.914 264.426 100.429C263.357 101.095 262.182 101.507 261.098 101.732C258.538 102.264 255.616 102.003 252.838 101.061C250.059 100.118 247.581 98.5482 245.873 96.5691C245.37 95.9868 244.887 95.3055 244.491 94.5484C243.339 95.7489 241.86 96.5268 240.499 96.9749ZM403.788 125.508C403.511 125.797 403.251 126.119 403.013 126.474C402.913 126.622 402.821 126.772 402.735 126.922C400.803 128.36 397.013 127.871 393.61 125.589C389.711 122.975 387.797 118.996 389.335 116.702C390.873 114.409 395.28 114.669 399.179 117.284C402.725 119.662 404.629 123.167 403.788 125.508ZM309.205 103.351C309.037 103.665 308.849 103.957 308.645 104.23C308.489 104.576 308.396 104.94 308.375 105.319C308.216 108.075 311.886 110.529 316.573 110.8C321.259 111.07 325.187 109.054 325.346 106.297C325.505 103.541 321.835 101.087 317.148 100.816C313.677 100.616 310.621 101.67 309.205 103.351ZM305.839 101.119C305.834 101.133 305.828 101.147 305.823 101.16C305.816 101.177 305.809 101.193 305.802 101.21C305.609 101.471 305.43 101.746 305.268 102.035C303.668 103.822 299.88 104.131 296.094 102.626C291.731 100.893 289.021 97.4068 290.041 94.8407C291.061 92.2745 295.424 91.5997 299.787 93.3335C304.149 95.0673 306.859 98.5532 305.839 101.119ZM233.064 93.3321C237.652 94.3276 241.845 92.9469 242.431 90.2483C243.016 87.5496 239.772 84.555 235.184 83.5595C230.597 82.5641 226.403 83.9447 225.818 86.6434C225.232 89.342 228.476 92.3366 233.064 93.3321ZM221 89.9998C221 92.7612 217.194 94.9998 212.5 94.9998C207.806 94.9998 204 92.7612 204 89.9998C204 87.2384 207.806 84.9998 212.5 84.9998C217.194 84.9998 221 87.2384 221 89.9998ZM263.778 95.2672C262.891 97.8823 258.568 98.7801 254.122 97.2725C249.677 95.7648 246.792 92.4226 247.679 89.8075C248.565 87.1924 252.888 86.2946 257.334 87.8022C261.78 89.3098 264.665 92.652 263.778 95.2672ZM277.095 102.403C281.756 101.838 285.264 99.1573 284.931 96.4159C284.599 93.6746 280.551 91.9108 275.891 92.4762C271.231 93.0417 267.722 95.7224 268.055 98.4637C268.388 101.205 272.435 102.969 277.095 102.403ZM342.889 119.588C341.336 121.871 336.931 121.582 333.049 118.942C329.167 116.303 327.279 112.312 328.832 110.028C330.385 107.745 334.79 108.034 338.672 110.673C342.554 113.313 344.442 117.304 342.889 119.588ZM354.533 129.105C359.228 129.145 363.052 126.938 363.075 124.177C363.099 121.416 359.312 119.145 354.618 119.105C349.924 119.066 346.099 121.272 346.076 124.033C346.053 126.794 349.839 129.065 354.533 129.105ZM384.268 119.644C384.183 122.404 380.31 124.524 375.618 124.379C370.925 124.234 367.191 121.879 367.276 119.119C367.361 116.359 371.234 114.239 375.926 114.384C380.618 114.528 384.353 116.883 384.268 119.644Z"/>
</mask>
<path fill-rule="evenodd" clip-rule="evenodd" d="M240.499 96.9749C238.016 97.7925 235.083 97.8633 232.216 97.2411C229.349 96.619 226.709 95.339 224.788 93.5657C224.623 93.4136 224.459 93.2529 224.297 93.0841C223.451 94.8427 221.964 96.1444 220.538 96.9831C218.285 98.3087 215.434 98.9998 212.5 98.9998C209.566 98.9998 206.715 98.3087 204.462 96.9831C204.153 96.8019 203.843 96.5991 203.536 96.3747C203.281 97.0446 202.963 97.6668 202.62 98.221C202.41 98.559 202.182 98.8903 201.936 99.2141L198 97.6726C199.868 95.7161 200.642 93.4738 199.775 91.8268C198.488 89.3834 194.078 89.1754 189.924 91.3623C185.77 93.5493 183.446 97.303 184.732 99.7464C184.929 100.12 185.199 100.442 185.529 100.71C185.529 100.71 186.5 102.5 185.401 103.447C184 104.654 182.635 103.5 182.635 103.5C182.079 102.983 181.587 102.359 181.193 101.61C179.619 98.6215 180.567 95.4838 181.887 93.3522C183.264 91.1294 185.465 89.1896 188.061 87.8229C190.657 86.4562 193.502 85.7395 196.113 85.8626C197.543 85.93 199.174 86.283 200.604 87.1296C201.43 85.2622 202.978 83.8889 204.462 83.0166C206.715 81.6909 209.566 80.9998 212.5 80.9998C215.434 80.9998 218.285 81.6909 220.538 83.0166C221.159 83.3814 221.79 83.8338 222.376 84.3734C223.462 81.9652 225.735 80.5799 227.749 79.9168C230.233 79.0992 233.166 79.0284 236.033 79.6505C238.9 80.2726 241.54 81.5526 243.461 83.3259C244.206 84.0141 244.937 84.8773 245.496 85.88C246.867 84.4529 248.719 83.6829 250.358 83.3424C252.918 82.8107 255.84 83.0719 258.619 84.0141C261.397 84.9563 263.875 86.5265 265.584 88.5056C266.322 89.3614 267.019 90.4311 267.461 91.6411C267.531 91.5846 267.602 91.5295 267.672 91.4757C269.749 89.8883 272.497 88.8588 275.409 88.5054C278.321 88.152 281.235 88.4946 283.632 89.5391C284.819 90.0562 286.076 90.8503 287.071 91.9589C288.544 89.8161 290.979 88.8418 293.049 88.5216C295.633 88.122 298.538 88.5328 301.264 89.6163C303.991 90.6999 306.385 92.3952 307.99 94.4594C308.759 95.4494 309.463 96.6995 309.818 98.0945C312.035 97.0986 314.689 96.6678 317.379 96.823C320.308 96.9919 323.114 97.8461 325.288 99.2992C327.039 100.47 328.846 102.397 329.263 104.983C330.57 104.541 331.938 104.434 333.14 104.513C335.749 104.684 338.496 105.716 340.922 107.366C343.348 109.016 345.317 111.19 346.435 113.554C346.864 114.461 347.216 115.522 347.362 116.648C349.488 115.61 352.039 115.083 354.652 115.105C357.585 115.13 360.431 115.845 362.673 117.19C362.927 117.342 363.183 117.51 363.437 117.692C364.018 115.03 366.05 113.195 367.953 112.153C370.246 110.898 373.117 110.295 376.05 110.385C378.982 110.476 381.81 111.255 384.022 112.649C384.733 113.097 385.455 113.665 386.098 114.35C387.99 111.65 391.142 111.014 393.608 111.16C396.218 111.314 398.97 112.328 401.407 113.962C403.844 115.596 405.827 117.758 406.96 120.114C407.412 121.054 407.782 122.16 407.924 123.334C408.847 123.151 409.767 123.11 410.608 123.159C411.306 123.2 412.014 123.303 412.723 123.463L409.616 127.145C408.603 127.189 407.718 127.456 407.054 127.951C406.968 128.101 406.875 128.25 406.776 128.399C406.538 128.754 406.278 129.075 406.001 129.365C405.16 131.705 407.064 135.211 410.61 137.589C414.508 140.204 418.916 140.464 420.454 138.17C421.133 137.158 421.139 135.817 420.599 134.409L423.643 131.5C423.755 131.703 423.861 131.907 423.96 132.114C425.047 134.373 425.657 137.593 423.776 140.398C421.895 143.203 418.684 143.861 416.181 143.713C413.571 143.559 410.818 142.545 408.382 140.911C405.945 139.277 403.962 137.115 402.829 134.759C402.377 133.819 402.007 132.713 401.865 131.539C400.942 131.722 400.022 131.763 399.181 131.714C396.571 131.559 393.818 130.545 391.382 128.911C389.43 127.603 387.77 125.956 386.604 124.142C385.739 125.211 384.645 126.032 383.591 126.609C381.298 127.865 378.426 128.467 375.494 128.377C372.562 128.286 369.733 127.508 367.522 126.113C367.317 125.984 367.112 125.845 366.908 125.697C366.335 128.276 364.392 130.096 362.555 131.156C360.29 132.463 357.433 133.13 354.5 133.105C351.566 133.08 348.721 132.365 346.478 131.02C344.49 129.828 342.39 127.724 342.108 124.744C340.909 125.093 339.676 125.175 338.581 125.103C335.972 124.932 333.226 123.9 330.8 122.25C328.374 120.6 326.405 118.426 325.287 116.062C324.897 115.24 324.572 114.291 324.406 113.282C322.093 114.448 319.239 114.96 316.342 114.793C313.413 114.624 310.607 113.77 308.433 112.317C306.774 111.207 305.065 109.419 304.535 107.035C303.958 107.222 303.382 107.353 302.831 107.438C300.247 107.838 297.343 107.427 294.616 106.344C291.89 105.26 289.496 103.565 287.891 101.501C287.782 101.36 287.674 101.214 287.568 101.064C286.92 102.004 286.116 102.791 285.314 103.404C283.237 104.991 280.49 106.021 277.577 106.374C274.665 106.728 271.751 106.385 269.354 105.341C267.417 104.496 265.29 102.914 264.426 100.429C263.357 101.095 262.182 101.507 261.098 101.732C258.538 102.264 255.616 102.003 252.838 101.061C250.059 100.118 247.581 98.5482 245.873 96.5691C245.37 95.9868 244.887 95.3055 244.491 94.5484C243.339 95.7489 241.86 96.5268 240.499 96.9749ZM403.788 125.508C403.511 125.797 403.251 126.119 403.013 126.474C402.913 126.622 402.821 126.772 402.735 126.922C400.803 128.36 397.013 127.871 393.61 125.589C389.711 122.975 387.797 118.996 389.335 116.702C390.873 114.409 395.28 114.669 399.179 117.284C402.725 119.662 404.629 123.167 403.788 125.508ZM309.205 103.351C309.037 103.665 308.849 103.957 308.645 104.23C308.489 104.576 308.396 104.94 308.375 105.319C308.216 108.075 311.886 110.529 316.573 110.8C321.259 111.07 325.187 109.054 325.346 106.297C325.505 103.541 321.835 101.087 317.148 100.816C313.677 100.616 310.621 101.67 309.205 103.351ZM305.839 101.119C305.834 101.133 305.828 101.147 305.823 101.16C305.816 101.177 305.809 101.193 305.802 101.21C305.609 101.471 305.43 101.746 305.268 102.035C303.668 103.822 299.88 104.131 296.094 102.626C291.731 100.893 289.021 97.4068 290.041 94.8407C291.061 92.2745 295.424 91.5997 299.787 93.3335C304.149 95.0673 306.859 98.5532 305.839 101.119ZM233.064 93.3321C237.652 94.3276 241.845 92.9469 242.431 90.2483C243.016 87.5496 239.772 84.555 235.184 83.5595C230.597 82.5641 226.403 83.9447 225.818 86.6434C225.232 89.342 228.476 92.3366 233.064 93.3321ZM221 89.9998C221 92.7612 217.194 94.9998 212.5 94.9998C207.806 94.9998 204 92.7612 204 89.9998C204 87.2384 207.806 84.9998 212.5 84.9998C217.194 84.9998 221 87.2384 221 89.9998ZM263.778 95.2672C262.891 97.8823 258.568 98.7801 254.122 97.2725C249.677 95.7648 246.792 92.4226 247.679 89.8075C248.565 87.1924 252.888 86.2946 257.334 87.8022C261.78 89.3098 264.665 92.652 263.778 95.2672ZM277.095 102.403C281.756 101.838 285.264 99.1573 284.931 96.4159C284.599 93.6746 280.551 91.9108 275.891 92.4762C271.231 93.0417 267.722 95.7224 268.055 98.4637C268.388 101.205 272.435 102.969 277.095 102.403ZM342.889 119.588C341.336 121.871 336.931 121.582 333.049 118.942C329.167 116.303 327.279 112.312 328.832 110.028C330.385 107.745 334.79 108.034 338.672 110.673C342.554 113.313 344.442 117.304 342.889 119.588ZM354.533 129.105C359.228 129.145 363.052 126.938 363.075 124.177C363.099 121.416 359.312 119.145 354.618 119.105C349.924 119.066 346.099 121.272 346.076 124.033C346.053 126.794 349.839 129.065 354.533 129.105ZM384.268 119.644C384.183 122.404 380.31 124.524 375.618 124.379C370.925 124.234 367.191 121.879 367.276 119.119C367.361 116.359 371.234 114.239 375.926 114.384C380.618 114.528 384.353 116.883 384.268 119.644Z" fill="#D9D9D9"/>
<path fill-rule="evenodd" clip-rule="evenodd" d="M240.499 96.9749C238.016 97.7925 235.083 97.8633 232.216 97.2411C229.349 96.619 226.709 95.339 224.788 93.5657C224.623 93.4136 224.459 93.2529 224.297 93.0841C223.451 94.8427 221.964 96.1444 220.538 96.9831C218.285 98.3087 215.434 98.9998 212.5 98.9998C209.566 98.9998 206.715 98.3087 204.462 96.9831C204.153 96.8019 203.843 96.5991 203.536 96.3747C203.281 97.0446 202.963 97.6668 202.62 98.221C202.41 98.559 202.182 98.8903 201.936 99.2141L198 97.6726C199.868 95.7161 200.642 93.4738 199.775 91.8268C198.488 89.3834 194.078 89.1754 189.924 91.3623C185.77 93.5493 183.446 97.303 184.732 99.7464C184.929 100.12 185.199 100.442 185.529 100.71C185.529 100.71 186.5 102.5 185.401 103.447C184 104.654 182.635 103.5 182.635 103.5C182.079 102.983 181.587 102.359 181.193 101.61C179.619 98.6215 180.567 95.4838 181.887 93.3522C183.264 91.1294 185.465 89.1896 188.061 87.8229C190.657 86.4562 193.502 85.7395 196.113 85.8626C197.543 85.93 199.174 86.283 200.604 87.1296C201.43 85.2622 202.978 83.8889 204.462 83.0166C206.715 81.6909 209.566 80.9998 212.5 80.9998C215.434 80.9998 218.285 81.6909 220.538 83.0166C221.159 83.3814 221.79 83.8338 222.376 84.3734C223.462 81.9652 225.735 80.5799 227.749 79.9168C230.233 79.0992 233.166 79.0284 236.033 79.6505C238.9 80.2726 241.54 81.5526 243.461 83.3259C244.206 84.0141 244.937 84.8773 245.496 85.88C246.867 84.4529 248.719 83.6829 250.358 83.3424C252.918 82.8107 255.84 83.0719 258.619 84.0141C261.397 84.9563 263.875 86.5265 265.584 88.5056C266.322 89.3614 267.019 90.4311 267.461 91.6411C267.531 91.5846 267.602 91.5295 267.672 91.4757C269.749 89.8883 272.497 88.8588 275.409 88.5054C278.321 88.152 281.235 88.4946 283.632 89.5391C284.819 90.0562 286.076 90.8503 287.071 91.9589C288.544 89.8161 290.979 88.8418 293.049 88.5216C295.633 88.122 298.538 88.5328 301.264 89.6163C303.991 90.6999 306.385 92.3952 307.99 94.4594C308.759 95.4494 309.463 96.6995 309.818 98.0945C312.035 97.0986 314.689 96.6678 317.379 96.823C320.308 96.9919 323.114 97.8461 325.288 99.2992C327.039 100.47 328.846 102.397 329.263 104.983C330.57 104.541 331.938 104.434 333.14 104.513C335.749 104.684 338.496 105.716 340.922 107.366C343.348 109.016 345.317 111.19 346.435 113.554C346.864 114.461 347.216 115.522 347.362 116.648C349.488 115.61 352.039 115.083 354.652 115.105C357.585 115.13 360.431 115.845 362.673 117.19C362.927 117.342 363.183 117.51 363.437 117.692C364.018 115.03 366.05 113.195 367.953 112.153C370.246 110.898 373.117 110.295 376.05 110.385C378.982 110.476 381.81 111.255 384.022 112.649C384.733 113.097 385.455 113.665 386.098 114.35C387.99 111.65 391.142 111.014 393.608 111.16C396.218 111.314 398.97 112.328 401.407 113.962C403.844 115.596 405.827 117.758 406.96 120.114C407.412 121.054 407.782 122.16 407.924 123.334C408.847 123.151 409.767 123.11 410.608 123.159C411.306 123.2 412.014 123.303 412.723 123.463L409.616 127.145C408.603 127.189 407.718 127.456 407.054 127.951C406.968 128.101 406.875 128.25 406.776 128.399C406.538 128.754 406.278 129.075 406.001 129.365C405.16 131.705 407.064 135.211 410.61 137.589C414.508 140.204 418.916 140.464 420.454 138.17C421.133 137.158 421.139 135.817 420.599 134.409L423.643 131.5C423.755 131.703 423.861 131.907 423.96 132.114C425.047 134.373 425.657 137.593 423.776 140.398C421.895 143.203 418.684 143.861 416.181 143.713C413.571 143.559 410.818 142.545 408.382 140.911C405.945 139.277 403.962 137.115 402.829 134.759C402.377 133.819 402.007 132.713 401.865 131.539C400.942 131.722 400.022 131.763 399.181 131.714C396.571 131.559 393.818 130.545 391.382 128.911C389.43 127.603 387.77 125.956 386.604 124.142C385.739 125.211 384.645 126.032 383.591 126.609C381.298 127.865 378.426 128.467 375.494 128.377C372.562 128.286 369.733 127.508 367.522 126.113C367.317 125.984 367.112 125.845 366.908 125.697C366.335 128.276 364.392 130.096 362.555 131.156C360.29 132.463 357.433 133.13 354.5 133.105C351.566 133.08 348.721 132.365 346.478 131.02C344.49 129.828 342.39 127.724 342.108 124.744C340.909 125.093 339.676 125.175 338.581 125.103C335.972 124.932 333.226 123.9 330.8 122.25C328.374 120.6 326.405 118.426 325.287 116.062C324.897 115.24 324.572 114.291 324.406 113.282C322.093 114.448 319.239 114.96 316.342 114.793C313.413 114.624 310.607 113.77 308.433 112.317C306.774 111.207 305.065 109.419 304.535 107.035C303.958 107.222 303.382 107.353 302.831 107.438C300.247 107.838 297.343 107.427 294.616 106.344C291.89 105.26 289.496 103.565 287.891 101.501C287.782 101.36 287.674 101.214 287.568 101.064C286.92 102.004 286.116 102.791 285.314 103.404C283.237 104.991 280.49 106.021 277.577 106.374C274.665 106.728 271.751 106.385 269.354 105.341C267.417 104.496 265.29 102.914 264.426 100.429C263.357 101.095 262.182 101.507 261.098 101.732C258.538 102.264 255.616 102.003 252.838 101.061C250.059 100.118 247.581 98.5482 245.873 96.5691C245.37 95.9868 244.887 95.3055 244.491 94.5484C243.339 95.7489 241.86 96.5268 240.499 96.9749ZM403.788 125.508C403.511 125.797 403.251 126.119 403.013 126.474C402.913 126.622 402.821 126.772 402.735 126.922C400.803 128.36 397.013 127.871 393.61 125.589C389.711 122.975 387.797 118.996 389.335 116.702C390.873 114.409 395.28 114.669 399.179 117.284C402.725 119.662 404.629 123.167 403.788 125.508ZM309.205 103.351C309.037 103.665 308.849 103.957 308.645 104.23C308.489 104.576 308.396 104.94 308.375 105.319C308.216 108.075 311.886 110.529 316.573 110.8C321.259 111.07 325.187 109.054 325.346 106.297C325.505 103.541 321.835 101.087 317.148 100.816C313.677 100.616 310.621 101.67 309.205 103.351ZM305.839 101.119C305.834 101.133 305.828 101.147 305.823 101.16C305.816 101.177 305.809 101.193 305.802 101.21C305.609 101.471 305.43 101.746 305.268 102.035C303.668 103.822 299.88 104.131 296.094 102.626C291.731 100.893 289.021 97.4068 290.041 94.8407C291.061 92.2745 295.424 91.5997 299.787 93.3335C304.149 95.0673 306.859 98.5532 305.839 101.119ZM233.064 93.3321C237.652 94.3276 241.845 92.9469 242.431 90.2483C243.016 87.5496 239.772 84.555 235.184 83.5595C230.597 82.5641 226.403 83.9447 225.818 86.6434C225.232 89.342 228.476 92.3366 233.064 93.3321ZM221 89.9998C221 92.7612 217.194 94.9998 212.5 94.9998C207.806 94.9998 204 92.7612 204 89.9998C204 87.2384 207.806 84.9998 212.5 84.9998C217.194 84.9998 221 87.2384 221 89.9998ZM263.778 95.2672C262.891 97.8823 258.568 98.7801 254.122 97.2725C249.677 95.7648 246.792 92.4226 247.679 89.8075C248.565 87.1924 252.888 86.2946 257.334 87.8022C261.78 89.3098 264.665 92.652 263.778 95.2672ZM277.095 102.403C281.756 101.838 285.264 99.1573 284.931 96.4159C284.599 93.6746 280.551 91.9108 275.891 92.4762C271.231 93.0417 267.722 95.7224 268.055 98.4637C268.388 101.205 272.435 102.969 277.095 102.403ZM342.889 119.588C341.336 121.871 336.931 121.582 333.049 118.942C329.167 116.303 327.279 112.312 328.832 110.028C330.385 107.745 334.79 108.034 338.672 110.673C342.554 113.313 344.442 117.304 342.889 119.588ZM354.533 129.105C359.228 129.145 363.052 126.938 363.075 124.177C363.099 121.416 359.312 119.145 354.618 119.105C349.924 119.066 346.099 121.272 346.076 124.033C346.053 126.794 349.839 129.065 354.533 129.105ZM384.268 119.644C384.183 122.404 380.31 124.524 375.618 124.379C370.925 124.234 367.191 121.879 367.276 119.119C367.361 116.359 371.234 114.239 375.926 114.384C380.618 114.528 384.353 116.883 384.268 119.644Z" stroke="#999999" stroke-width="2" mask="url(#path-74-inside-1_287_9)"/>
</g>
<defs>
<filter id="filter0_d_287_9" x="0.965942" y="0.439453" width="475.415" height="207.91" filterUnits="userSpaceOnUse" color-interpolation-filters="sRGB">
<feFlood flood-opacity="0" result="BackgroundImageFix"/>
<feColorMatrix in="SourceAlpha" type="matrix" values="0 0 0 0 0 0 0 0 0 0 0 0 0 0 0 0 0 0 127 0" result="hardAlpha"/>
<feOffset dx="6" dy="6"/>
<feComposite in2="hardAlpha" operator="out"/>
<feColorMatrix type="matrix" values="0 0 0 0 0 0 0 0 0 0 0 0 0 0 0 0 0 0 0.25 0"/>
<feBlend mode="normal" in2="BackgroundImageFix" result="effect1_dropShadow_287_9"/>
<feBlend mode="normal" in="SourceGraphic" in2="effect1_dropShadow_287_9" result="shape"/>
</filter>
<filter id="filter1_d_287_9" x="1.04813" y="115" width="446.952" height="221" filterUnits="userSpaceOnUse" color-interpolation-filters="sRGB">
<feFlood flood-opacity="0" result="BackgroundImageFix"/>
<feColorMatrix in="SourceAlpha" type="matrix" values="0 0 0 0 0 0 0 0 0 0 0 0 0 0 0 0 0 0 127 0" result="hardAlpha"/>
<feOffset dx="6" dy="6"/>
<feComposite in2="hardAlpha" operator="out"/>
<feColorMatrix type="matrix" values="0 0 0 0 0 0 0 0 0 0 0 0 0 0 0 0 0 0 0.25 0"/>
<feBlend mode="normal" in2="BackgroundImageFix" result="effect1_dropShadow_287_9"/>
<feBlend mode="normal" in="SourceGraphic" in2="effect1_dropShadow_287_9" result="shape"/>
</filter>
<filter id="filter2_d_287_9" x="1.42514" y="44.0498" width="243.753" height="236.398" filterUnits="userSpaceOnUse" color-interpolation-filters="sRGB">
<feFlood flood-opacity="0" result="BackgroundImageFix"/>
<feColorMatrix in="SourceAlpha" type="matrix" values="0 0 0 0 0 0 0 0 0 0 0 0 0 0 0 0 0 0 127 0" result="hardAlpha"/>
<feOffset dx="8" dy="8"/>
<feComposite in2="hardAlpha" operator="out"/>
<feColorMatrix type="matrix" values="0 0 0 0 0 0 0 0 0 0 0 0 0 0 0 0 0 0 0.25 0"/>
<feBlend mode="normal" in2="BackgroundImageFix" result="effect1_dropShadow_287_9"/>
<feBlend mode="normal" in="SourceGraphic" in2="effect1_dropShadow_287_9" result="shape"/>
</filter>
<filter id="filter3_d_287_9" x="27.9688" y="69.2285" width="182.047" height="179.374" filterUnits="userSpaceOnUse" color-interpolation-filters="sRGB">
<feFlood flood-opacity="0" result="BackgroundImageFix"/>
<feColorMatrix in="SourceAlpha" type="matrix" values="0 0 0 0 0 0 0 0 0 0 0 0 0 0 0 0 0 0 127 0" result="hardAlpha"/>
<feOffset dx="4" dy="4"/>
<feComposite in2="hardAlpha" operator="out"/>
<feColorMatrix type="matrix" values="0 0 0 0 0 0 0 0 0 0 0 0 0 0 0 0 0 0 0.25 0"/>
<feBlend mode="normal" in2="BackgroundImageFix" result="effect1_dropShadow_287_9"/>
<feBlend mode="normal" in="SourceGraphic" in2="effect1_dropShadow_287_9" result="shape"/>
</filter>
<filter id="filter4_d_287_9" x="180.373" y="79.2363" width="248.614" height="68.4961" filterUnits="userSpaceOnUse" color-interpolation-filters="sRGB">
<feFlood flood-opacity="0" result="BackgroundImageFix"/>
<feColorMatrix in="SourceAlpha" type="matrix" values="0 0 0 0 0 0 0 0 0 0 0 0 0 0 0 0 0 0 127 0" result="hardAlpha"/>
<feOffset dx="4" dy="4"/>
<feComposite in2="hardAlpha" operator="out"/>
<feColorMatrix type="matrix" values="0 0 0 0 0 0 0 0 0 0 0 0 0 0 0 0 0 0 0.25 0"/>
<feBlend mode="normal" in2="BackgroundImageFix" result="effect1_dropShadow_287_9"/>
<feBlend mode="normal" in="SourceGraphic" in2="effect1_dropShadow_287_9" result="shape"/>
</filter>
</defs>
</svg>
