<svg width="886" height="268" viewBox="0 0 886 268" fill="none" xmlns="http://www.w3.org/2000/svg">
<g filter="url(#filter0_d_309_71)">
<path d="M0 128C0 57.3076 76.5 13.5 128 13.5C179.5 13.5 400 25.5 480.5 25.5C561 25.5 677.5 0 746 0C814.5 0 874 57.3076 874 128C874 198.692 810.5 256 746 256C681.5 256 578 230 480.5 230C383 230 179.5 242 128 242C76.5 242 0 198.692 0 128Z" fill="#1783BD"/>
<path d="M128 222C107.106 222 79.3185 212.916 56.8817 195.657C34.7343 178.621 20 155.455 20 128C20 100.524 34.756 77.2209 56.9302 60.0554C79.3894 42.6692 107.164 33.5 128 33.5C150.427 33.5 206.225 35.8496 268.997 38.4929C276.754 38.8196 284.618 39.1507 292.538 39.4825C363.972 42.4745 439.728 45.5 480.5 45.5C522.334 45.5 572.974 38.9054 620.397 32.5741C622.02 32.3574 623.639 32.1411 625.253 31.9253C671.751 25.7126 714.504 20 746 20C803.677 20 854 68.5744 854 128C854 187.032 800.079 236 746 236C718.587 236 683.326 230.991 642.306 225.164C637.746 224.516 633.115 223.858 628.416 223.196C582.31 216.698 530.806 210 480.5 210C431.232 210 355.52 213.024 286.137 216.019C275.066 216.497 264.167 216.973 253.564 217.437C197.197 219.901 149.193 222 128 222Z" stroke="#1B93D4" stroke-width="40"/>
</g>
<path fill-rule="evenodd" clip-rule="evenodd" d="M52.004 201.998C75.6911 220.219 105.164 230 128 230C149.386 230 197.629 227.89 253.965 225.427C264.56 224.964 275.44 224.488 286.482 224.011C355.912 221.014 431.439 218 480.5 218C530.184 218 581.186 224.619 627.299 231.117C632.022 231.783 636.685 232.446 641.285 233.099C682.115 238.903 717.981 244 746 244C804.247 244 862 191.696 862 128C862 64.0676 808.006 12 746 12C713.956 12 670.74 17.7754 624.578 23.9444C622.835 24.1773 621.089 24.4107 619.338 24.6445C571.784 30.9932 521.701 37.5 480.5 37.5C439.937 37.5 364.383 34.4847 292.873 31.4895C284.934 31.157 277.047 30.8248 269.263 30.497C206.593 27.8577 150.611 25.5 128 25.5C105.198 25.5 75.7337 35.3823 52.0331 53.7294C28.5036 71.9441 12 97.3758 12 128C12 158.612 28.4906 183.911 52.004 201.998ZM128 13.5C76.5 13.5 0 57.3076 0 128C0 198.692 76.5 242 128 242C149.676 242 198.277 239.874 254.569 237.412C332.023 234.024 424.036 230 480.5 230C534.268 230 589.86 237.907 639.731 245C680.293 250.769 717.07 256 746 256C810.5 256 874 198.692 874 128C874 57.3076 814.5 0 746 0C713.131 0 669.211 5.87111 623.52 11.979C573.987 18.6004 522.373 25.5 480.5 25.5C435.774 25.5 347.831 21.7957 269.667 18.5033C207.148 15.8699 150.886 13.5 128 13.5Z" fill="#0B618F"/>
<path d="M564.114 19.8018C564.113 19.7952 564.112 19.7886 576 18.1514C576 18.1514 576.69 23.1615 579.484 29.8138C585.002 42.9535 598.727 62.5002 631.554 62.5002C657.822 62.5002 677.613 56.1504 696.169 50.1973C712.542 44.9443 727.953 40.0002 746 40.0002C784.5 40.0002 819 79.8414 819 128C819 175.372 783.5 216 746 216C727.993 216 711.024 211.735 693.382 207.3C674.284 202.499 654.398 197.5 631.554 197.5C603.366 197.5 588.482 213.531 581.433 225.027C577.492 231.454 576 236.463 576 236.463C564.499 233.037 564.501 233.031 564.503 233.025L564.507 233.012L564.516 232.983L564.537 232.915L564.561 232.836L564.593 232.735C564.637 232.596 564.694 232.42 564.764 232.209C564.906 231.787 565.103 231.225 565.362 230.541C565.878 229.178 566.644 227.319 567.707 225.131C569.822 220.778 573.182 214.978 578.207 209.148C588.453 197.26 605.481 185.5 631.554 185.5C655.166 185.5 675.695 190.489 694.115 195.111L695.747 195.521C713.843 200.066 729.51 204 746 204C760.357 204 775.49 196.135 787.39 182.027C799.208 168.017 807 148.73 807 128C807 84.4363 776.008 52.0002 746 52.0002C729.89 52.0002 716.157 56.3978 699.397 61.7649C698.452 62.0676 697.497 62.3734 696.531 62.6817C678.681 68.3809 658.223 74.5002 631.554 74.5002C602.494 74.5002 585.089 61.1397 575.382 47.1755C570.69 40.426 567.917 33.7439 566.31 28.7749C565.5 26.2732 564.969 24.1542 564.633 22.6058C564.464 21.83 564.343 21.1927 564.26 20.7167C564.218 20.4786 564.186 20.2803 564.162 20.1248C564.15 20.0471 564.14 19.9799 564.131 19.9238L564.12 19.8479L564.116 19.8161L564.114 19.8018Z" fill="#0B618F"/>
<path d="M746 216C783.5 216 819 175.372 819 128C819 79.8412 784.5 40 746 40C707.5 40 681 62.5 631.554 62.5C582.108 62.5 576 18.1512 576 18.1512C591.797 16.2197 607.764 14.0853 623.52 11.979C669.211 5.87111 713.131 0 746 0C814.5 0 874 57.3076 874 128C874 198.692 810.5 256 746 256C717.07 256 680.293 250.769 639.731 245C619.276 242.091 597.859 239.045 576 236.463C576 236.463 587.608 197.5 631.554 197.5C675.5 197.5 708.5 216 746 216Z" fill="#EEEEEE"/>
<path fill-rule="evenodd" clip-rule="evenodd" d="M578.02 25.9635C576.436 21.32 576 18.1512 576 18.1512C578.643 17.828 581.292 17.4991 583.943 17.1655C597.135 15.5061 610.4 13.7329 623.519 11.9791C669.211 5.8712 713.131 0 746 0C814.5 0 874 57.3076 874 128C874 198.692 810.5 256 746 256C717.07 256 680.293 250.769 639.731 245C621.82 242.453 603.171 239.8 584.133 237.447C581.43 237.112 578.718 236.784 576 236.463C576 236.463 576.939 233.311 579.295 228.799C585.221 217.449 600.109 197.5 631.554 197.5C654.398 197.5 674.284 202.499 693.382 207.3C711.024 211.734 727.993 216 746 216C783.5 216 819 175.372 819 128C819 79.8412 784.5 40 746 40C727.953 40 712.542 44.9441 696.169 50.1971C677.613 56.1502 657.822 62.5 631.554 62.5C595.325 62.5 582.362 38.6916 578.02 25.9635ZM591.352 24.9499C592.569 28.1716 594.373 31.9796 597 35.7591C603.374 44.9283 609.722 54.5 631.554 54.5C654.98 54.5 672.985 53.2045 690.449 47.629C691.61 47.2583 692.772 46.8849 693.936 46.511C710.12 41.3117 726.654 36 746 36C790.161 36 823 76.7779 823 128C823 153.657 814.725 176.043 800 193.5C785.329 210.893 767.679 220 746 220C726.976 220 709.13 215.511 691.724 211.132C690.898 210.924 690.072 210.716 689.247 210.509C670.809 205.883 652.435 205.5 631.554 205.5C612.314 205.5 605.162 213.895 598 222.204C595.736 224.831 593.926 227.467 592.509 229.85C610.665 232.125 623.79 234.652 640.816 237.074L640.857 237.08C681.628 242.879 717.764 248 746 248C806.332 248 863.5 194.028 863.5 128C863.5 61.8143 810.171 8 746 8C713.787 8 670.478 13.7729 624.58 19.9085L624.556 19.9116C611.853 21.6098 604.175 23.3309 591.352 24.9499Z" fill="#D9D9D9"/>
<path d="M823 46.5002C809 32.5002 754.5 15.5 754.5 15.5C754.5 15.5 746.5 16.5002 746.5 23.0002C746.5 29.5002 754.5 30.5 754.5 30.5C754.5 30.5 772.5 33.5002 785 39.5C797.5 45.4998 810 59.0003 816.5 69.0002C823 79 822.5 128.5 832 130.5C841.5 132.5 847.5 109 847.5 93.5002C847.5 78.0003 837 60.5002 823 46.5002Z" fill="white"/>
<path d="M758.914 92.5858C753.74 87.4116 751.333 79.579 750.263 74.1998C749.484 70.2839 746.642 66.5962 742.213 66.0022C738.432 65.4951 732.755 65 725 65C717.374 65 711.757 65.4788 707.977 65.977C703.426 66.5766 700.562 70.4189 699.853 74.4458C698.907 79.8172 696.676 87.4952 691.586 92.5858C688.678 95.4939 684.769 97.4311 680.822 98.7052C676.888 99.9747 673.044 100.545 670.391 100.799C667.735 101.053 664.668 102.333 663.509 105.507C662.299 108.818 661 114.614 661 124.25C661 134.626 662.506 140.55 663.786 143.714C664.834 146.306 667.25 147.526 669.388 148.013C674.468 149.17 684.938 152.266 691.586 158.914C694.594 161.923 696.627 166.072 697.981 170.339C699.33 174.587 699.959 178.807 700.251 181.818C700.564 185.038 702.352 188.457 706.066 189.475C709.688 190.467 715.692 191.5 725 191.5C734.178 191.5 740.144 190.496 743.781 189.516C747.603 188.487 749.394 184.934 749.699 181.656C750.251 175.731 752.227 165.602 758.914 158.914C765.645 152.184 774.869 149.311 780.202 148.163C783.259 147.506 786.392 145.557 787.388 142.026C788.398 138.441 789.5 132.613 789.5 124.25C789.5 116.268 788.497 110.595 787.526 106.978C786.481 103.083 782.905 101.077 779.464 100.692C773.671 100.043 764.43 98.1013 758.914 92.5858Z" fill="#EEEEEE" stroke="#0B618F" stroke-width="4"/>
<path fill-rule="evenodd" clip-rule="evenodd" d="M785.594 107.496C784.832 104.653 782.166 103.007 779.241 102.679C773.403 102.025 763.538 100.038 757.5 94C751.893 88.393 749.391 80.0692 748.301 74.5899C747.641 71.2673 745.305 68.4347 741.947 67.9844C738.258 67.4897 732.669 67 725 67C717.458 67 711.928 67.4736 708.238 67.9598C704.789 68.4144 702.426 71.366 701.823 74.7927C700.858 80.2729 698.538 88.4618 693 94C686.572 100.428 676.063 102.265 670.582 102.79C668.307 103.008 666.172 104.047 665.387 106.193C664.277 109.234 663 114.787 663 124.25C663 134.44 664.48 140.096 665.64 142.964C666.341 144.696 668.01 145.648 669.832 146.063C674.964 147.231 685.924 150.424 693 157.5C699.645 164.145 701.642 175.437 702.242 181.625C702.506 184.347 703.957 186.823 706.595 187.546C710.015 188.483 715.837 189.5 725 189.5C734.035 189.5 739.821 188.511 743.261 187.585C745.978 186.853 747.447 184.273 747.708 181.471C748.269 175.442 750.295 164.705 757.5 157.5C764.637 150.363 774.314 147.384 779.782 146.208C782.398 145.645 784.736 144.059 785.463 141.483C786.422 138.08 787.5 132.435 787.5 124.25C787.5 116.437 786.518 110.939 785.594 107.496ZM780.616 141.964C780.95 141.903 781.228 141.667 781.331 141.343C781.501 140.803 781.685 140.166 781.871 139.428C782.663 136.289 783.5 131.305 783.5 124.25C783.5 117.195 782.663 112.211 781.871 109.072C781.7 108.394 781.531 107.801 781.373 107.291C781.295 107.042 781.071 106.868 780.81 106.847V106.847C778.907 106.697 776.271 106.397 773.323 105.794C767.569 104.617 760.007 102.164 754.672 96.8284C749.447 91.6038 746.711 84.5631 745.262 79.1615C744.821 77.5197 744.489 75.9872 744.238 74.6437C743.981 73.2625 742.917 72.1525 741.525 71.9637V71.9637C738.023 71.4889 732.578 71 725 71C717.422 71 711.977 71.4889 708.475 71.9637V71.9637C707.141 72.1446 706.13 73.2244 705.919 74.5539C705.704 75.8984 705.412 77.431 705.011 79.0728C703.689 84.4916 701.084 91.5729 695.828 96.8284C690.509 102.148 683.093 104.608 677.444 105.79C674.557 106.395 671.979 106.696 670.12 106.846V106.846C669.682 106.882 669.294 107.156 669.144 107.569C669.039 107.855 668.93 108.175 668.82 108.531C667.964 111.285 667 116.184 667 124.25C667 132.316 667.964 137.215 668.82 139.969C668.925 140.307 669.028 140.612 669.127 140.887C669.362 141.534 669.936 141.986 670.608 142.137V142.137C672.411 142.544 674.911 143.19 677.729 144.152C683.28 146.046 690.449 149.292 695.828 154.672C701.429 160.272 704 168.356 705.235 174.528C705.867 177.691 706.182 180.528 706.34 182.576V182.576C706.374 183.019 706.668 183.403 707.094 183.529C707.465 183.639 707.881 183.753 708.345 183.869C711.478 184.653 716.771 185.5 725 185.5C733.229 185.5 738.522 184.653 741.655 183.869C742.172 183.74 742.63 183.613 743.032 183.491C743.353 183.394 743.573 183.105 743.594 182.771V182.771C743.72 180.779 744.005 178.012 744.643 174.887C745.902 168.726 748.627 160.717 754.672 154.672C760.545 148.799 767.835 145.542 773.477 143.75C776.323 142.846 778.819 142.293 780.616 141.964V141.964ZM780.462 104.867C780.462 104.865 780.461 104.864 780.46 104.863C780.46 104.863 780.46 104.863 780.46 104.863V104.863L780.462 104.867ZM780.46 143.637L780.462 143.633C780.459 143.641 780.458 143.642 780.46 143.637Z" fill="#666666"/>
<path d="M679 119L672 126L679 133M685.588 119L678.588 126L685.588 133" stroke="#666666" stroke-width="3" stroke-linecap="round" stroke-linejoin="round"/>
<path d="M770.588 133L777.588 126L770.588 119M764 133L771 126L764 119" stroke="#666666" stroke-width="3" stroke-linecap="round" stroke-linejoin="round"/>
<circle cx="725" cy="127" r="32" fill="#EEEEEE" stroke="#666666" stroke-width="4"/>
<circle cx="729" cy="121" r="21" fill="white"/>
<path fill-rule="evenodd" clip-rule="evenodd" d="M727.124 116.202C727.812 115.867 728.63 115.954 729.233 116.425L740.733 125.425C741.233 125.816 741.517 126.422 741.499 127.056C741.481 127.691 741.163 128.279 740.642 128.642L729.142 136.642C728.531 137.067 727.734 137.117 727.074 136.773C726.414 136.428 726 135.745 726 135L726 118C726 117.235 726.436 116.537 727.124 116.202ZM710 116C711.105 116 712 116.895 712 118V135C712 136.105 711.105 137 710 137C708.895 137 708 136.105 708 135V118C708 116.895 708.895 116 710 116ZM717 116C718.105 116 719 116.895 719 118V135C719 136.105 718.105 137 717 137C715.895 137 715 136.105 715 135V118C715 116.895 715.895 116 717 116Z" fill="#666666"/>
<path d="M503 59H136C125.485 59 116.17 64.5579 109.579 73.142C102.99 81.7229 99 93.4487 99 106.279V141.442C99 154.012 101.311 162.644 107.421 169.259C113.353 175.679 122.527 179.78 134.972 184.318C147.886 189.028 165.485 191.992 193.872 193.802C222.288 195.614 261.747 196.279 318.5 196.279C431.891 196.279 480.375 191.688 503.892 184.364C515.478 180.756 524.633 176.668 530.824 169.996C537.136 163.194 540 154.129 540 141.442V106.279C540 93.4487 536.01 81.7229 529.421 73.142C522.83 64.5579 513.515 59 503 59Z" fill="#333333" stroke="#0B618F" stroke-width="6"/>
<defs>
<filter id="filter0_d_309_71" x="0" y="0" width="886" height="268" filterUnits="userSpaceOnUse" color-interpolation-filters="sRGB">
<feFlood flood-opacity="0" result="BackgroundImageFix"/>
<feColorMatrix in="SourceAlpha" type="matrix" values="0 0 0 0 0 0 0 0 0 0 0 0 0 0 0 0 0 0 127 0" result="hardAlpha"/>
<feOffset dx="12" dy="12"/>
<feComposite in2="hardAlpha" operator="out"/>
<feColorMatrix type="matrix" values="0 0 0 0 0 0 0 0 0 0 0 0 0 0 0 0 0 0 0.25 0"/>
<feBlend mode="normal" in2="BackgroundImageFix" result="effect1_dropShadow_309_71"/>
<feBlend mode="normal" in="SourceGraphic" in2="effect1_dropShadow_309_71" result="shape"/>
</filter>
</defs>
</svg>
