<svg width="653" height="413" viewBox="0 0 653 413" fill="none" xmlns="http://www.w3.org/2000/svg">
<g filter="url(#filter0_d_288_66)">
<rect x="117" y="111.877" width="260" height="297" rx="32" transform="rotate(-5.4906 117 111.877)" fill="#88AD88"/>
</g>
<g filter="url(#filter1_d_288_66)">
<path d="M560 97.5C560 146.929 493.514 187 411.5 187C386.39 187 331.736 190.131 311 183.5C264.007 168.473 263 131.796 263 97.5C263 48.0705 329.486 8 411.5 8C449.534 8 489.728 11.828 516 26C546.381 42.3881 560 70.9931 560 97.5Z" fill="#BBDABB"/>
<path d="M311 183.5C331.736 190.13 386.39 187 411.5 187C478.206 187 534.64 160.491 553.383 124L518 83.9814C497.579 95.4022 465.92 107.668 419 113.5C318.5 125.991 263 97.4996 263 97.4996C263 131.796 264.007 168.473 311 183.5Z" fill="#AFD1AF"/>
<path d="M0 159C0 246.813 83 316 160 318C176.5 320 210 335 220 333C230 331 240 299.5 242.5 295.261C245.5 292 250.5 288.5 250.5 288.5L249 292C250.5 292 251.614 291.776 252 291.5C289.529 264.61 312 217.272 312 164.5C312 76.6867 231.866 0 143.5 0C55.1344 0 0 71.1867 0 159Z" fill="#BBDABB"/>
<path d="M143.5 0C55.1344 0 0 71.1867 0 159C0 182.277 5.83188 204.245 15.838 224C15.838 224 16 120.277 106.5 60.5C197 0.722969 271.467 60.5 271.467 60.5C239.774 23.9905 192.925 0 143.5 0Z" fill="#AFD1AF"/>
<path d="M277.441 298C280.441 293 336.441 239.5 342.941 231C342.941 231 341 214.5 338 210C335 205.5 313 182.5 313 182.5L387 174.5L403.5 223.5C403.5 223.5 407 240.5 403.5 252C400 263.5 363 311.5 297.441 320C285.441 320.455 280.941 317.5 277.441 314C273.941 310.5 274.441 303 277.441 298Z" fill="#9CBF9C"/>
<path d="M353 186C352 173 337.5 155.5 333 149.5C328.5 143.5 304 119.5 304 119.5L298 99.5L415.5 76L409 93.5V139.5C409 139.5 415 182.5 413.5 194.5C412 206.5 411 217.5 405 228.5C399 239.5 364.5 306 298.5 308.5C286.5 308.955 282 306 278.5 302.5C275 299 275.5 291.5 278.5 286.5C281.5 281.5 337.5 228 344 219.5C350.5 211 354 199 353 186Z" fill="#BBDABB"/>
<path d="M428.5 288C408.751 269.551 413.989 232.223 423.134 211.129L532.749 194.768C532.749 194.768 559.597 184.662 570.012 187.513C589.895 192.954 612.021 208.667 618.5 234C619.537 238.053 630.171 255.151 616 269C598.408 286.191 569.667 277.471 549 278.5C528.333 279.529 462.775 313.641 428.5 288Z" fill="#9CBF9C"/>
<path d="M424.5 194C433 172.5 452.5 131.499 457 122.5C461.5 113.5 473.5 85 473.5 85L541.5 58.5L556.5 116C556 123 545 163.5 538 172.5C538 172.5 565.5 161.142 576.5 163.5C597.5 168 630 189.5 638 214.5C639.28 218.5 644.597 229.999 630.5 244.499C613 262.499 575 252.499 553.5 254.499C532 256.499 470 295.999 433 271.999C411.5 254.499 416 215.5 424.5 194Z" fill="#BBDABB"/>
<path d="M548.123 148.5C544.78 158.882 541.018 168.619 538 172.5C538 172.5 503.128 185.286 483.865 194.828C481.459 196.206 479.158 197.442 477 198.5C478.915 197.363 481.246 196.125 483.865 194.828C509.894 179.923 548.123 148.5 548.123 148.5Z" fill="#AFD1AF"/>
<rect x="177" y="306.46" width="13" height="3" rx="1.5" transform="rotate(-61.8248 177 306.46)" fill="#333333"/>
</g>
<defs>
<filter id="filter0_d_288_66" x="119.913" y="89.9121" width="289.399" height="322.689" filterUnits="userSpaceOnUse" color-interpolation-filters="sRGB">
<feFlood flood-opacity="0" result="BackgroundImageFix"/>
<feColorMatrix in="SourceAlpha" type="matrix" values="0 0 0 0 0 0 0 0 0 0 0 0 0 0 0 0 0 0 127 0" result="hardAlpha"/>
<feOffset dx="8" dy="8"/>
<feComposite in2="hardAlpha" operator="out"/>
<feColorMatrix type="matrix" values="0 0 0 0 0 0 0 0 0 0 0 0 0 0 0 0 0 0 0.25 0"/>
<feBlend mode="normal" in2="BackgroundImageFix" result="effect1_dropShadow_288_66"/>
<feBlend mode="normal" in="SourceGraphic" in2="effect1_dropShadow_288_66" result="shape"/>
</filter>
<filter id="filter1_d_288_66" x="0" y="0" width="652.047" height="345.184" filterUnits="userSpaceOnUse" color-interpolation-filters="sRGB">
<feFlood flood-opacity="0" result="BackgroundImageFix"/>
<feColorMatrix in="SourceAlpha" type="matrix" values="0 0 0 0 0 0 0 0 0 0 0 0 0 0 0 0 0 0 127 0" result="hardAlpha"/>
<feOffset dx="12" dy="12"/>
<feComposite in2="hardAlpha" operator="out"/>
<feColorMatrix type="matrix" values="0 0 0 0 0 0 0 0 0 0 0 0 0 0 0 0 0 0 0.25 0"/>
<feBlend mode="normal" in2="BackgroundImageFix" result="effect1_dropShadow_288_66"/>
<feBlend mode="normal" in="SourceGraphic" in2="effect1_dropShadow_288_66" result="shape"/>
</filter>
</defs>
</svg>
