<svg width="427" height="123" viewBox="0 0 427 123" fill="none" xmlns="http://www.w3.org/2000/svg">
<path d="M40.4666 39.5657C40.4996 38.6276 40.6705 37.3609 40.8962 35.965M40.8962 35.965C41.7874 30.452 43.5328 22.9216 41.0105 25.6385C39.9012 26.8333 40.6677 32.1629 40.7228 33.329C40.7643 34.2076 40.8228 35.0863 40.8962 35.965ZM40.8962 35.965C41.6913 45.4841 44.2372 55.0028 45.9299 64.35C48.8117 80.2633 50.3478 96.2403 52.591 112.19C53.6111 119.442 54.9622 120.176 53.0599 112.927M5.33884 49.7143C1.20287 49.6247 12.7985 46.1288 16.6029 44.5037C30.4111 38.6055 44.6235 34.6059 58.0564 27.7046C72.0925 20.4933 113.418 -2.51841 100.102 5.9487M89.4151 46.0798C89.7087 43.1057 90.643 40.2763 91.782 37.5252C92.7722 35.1338 93.5768 28.2586 94.9656 30.4428C96.7695 33.2799 93.5839 43.5168 93.2841 46.5272C91.9489 59.9333 91.9385 73.5372 92.3475 86.9907C92.3769 87.9556 92.3724 88.9895 92.363 90.0629M92.363 90.0629C92.325 94.3816 92.2059 99.341 93.8792 103.023C94.076 103.457 96.7149 106.409 96.7593 104.359C96.8471 100.303 94.8261 94.9976 92.363 90.0629ZM92.363 90.0629C90.4106 86.1515 88.1805 82.4729 86.5026 79.8341M73.631 69.7368C67.6483 66.7273 83.4109 65.9516 84.8661 65.8589C96.9957 65.0862 110.37 63.6777 121.625 58.776C121.726 58.7317 121.828 58.6886 121.929 58.6466M121.929 58.6466C125.203 57.2907 128.317 57.0493 126.872 54.3443C122.19 45.5831 124.693 32.1428 124.829 22.7251C124.837 22.1787 124.442 9.49792 123.043 15.6563C119.918 29.4114 121.145 44.4536 121.929 58.6466ZM121.929 58.6466C122.041 60.673 122.144 62.6821 122.224 64.6676C122.724 77.0807 121.752 89.9659 124.199 102.225C124.889 105.679 125.34 99.9004 125.355 99.2194M151.595 96.5151C150.605 99.654 151.465 100.243 151.592 96.6363C151.946 86.6258 151.903 76.6014 152.243 66.5905C152.411 61.6078 152.812 15.9927 169.888 26.9735C175.64 30.6731 176.33 42.5713 178.331 48.4891C182.069 59.5486 183.697 69.3574 183.442 81.1443C183.237 90.5817 181.098 99.8156 180.895 109.21C180.715 117.516 181.939 105.775 181.983 103.718M155.314 75.869C153.183 75.2695 150.354 75.0523 154.008 74.6287C160.431 73.884 165.981 70.4522 171.905 68.1678C179.713 65.1567 187.719 65.6617 195.894 65.8387M206.486 30.0684L206.484 30.0654M206.484 30.0654C204.633 27.0477 204.394 31.6798 204.299 33.1119C203.747 41.4558 203.875 49.893 203.694 58.2497C203.529 65.8811 203.23 73.54 203.17 81.1923M206.484 30.0654C206.015 28.4095 205.566 26.7446 205.14 25.0697C202.478 14.6163 201.661 22.8909 201.914 28.5149C202.704 46.0976 202.461 63.6349 203.17 81.1923M206.484 30.0654C211.406 47.4328 218.586 63.811 225.943 80.3065C227.324 83.4019 240.823 106.843 241.112 93.4831C241.589 71.443 237.881 49.2729 233.87 27.6916C232.753 21.6781 232.296 14.6385 230.096 8.88313C228.422 4.50589 229.416 18.2471 229.549 22.9315M203.17 81.1923C203.131 86.2561 203.197 91.317 203.475 96.3652C203.722 100.837 205.312 109.98 204.37 99.839C203.792 93.619 203.422 87.4044 203.17 81.1923ZM282.458 48.0771C282.851 43.5702 285.915 31.4659 281.078 27.8053C278.76 26.0507 275.868 26.1222 273.017 27.0647M273.017 27.0647C269.13 28.3497 265.318 31.2536 263.141 33.3562C252.988 43.1577 248.212 57.239 249.351 71.2385C250.17 81.307 256.363 97.0302 267.769 99.5153C278.109 101.768 287.645 86.2322 291.126 78.8093C296.801 66.7056 298.433 50.3502 293.713 37.6543C291.248 31.0225 285.294 21.007 276.974 21.4136C272.457 21.6343 272.281 24.2237 273.017 27.0647ZM273.017 27.0647C273.31 28.1952 273.747 29.3655 274.112 30.4423M336.146 37.2393L336.142 37.228C334.216 31.0025 331.364 21.7858 324.034 20.0079C317.138 18.3349 307.79 23.3268 302.836 27.7912C299.189 31.0782 298.532 34.6311 303.364 37.0145C313.43 41.9803 324.458 43.6907 334.301 49.6839C356.503 63.2031 348.231 88.8855 325.137 95.0601C316.658 97.3271 308.266 96.3586 302.664 88.9374C297.613 82.2474 301.642 79.0355 306.842 74.8902L306.97 74.7885M382.147 80.6215C382.142 80.6198 382.138 80.6181 382.133 80.6164M382.133 80.6164C375.245 78.0238 371.516 69.4924 368.453 63.4139C363.791 54.1603 363 43.4628 363 33.2399C363 28.8623 362.925 20.1863 366.878 17.0017C368.928 15.3502 374.453 16.0871 376.694 16.7594C383.109 18.6838 385.079 26.3354 386.025 32.1493C386.617 35.7918 387.316 39.8996 386.912 43.7388M382.133 80.6164C384.576 78.1476 388.965 75.691 390.508 74.4413C402.473 64.7503 420.395 52.9112 422.258 36.1483C424.191 18.7516 405.284 27.2062 397.416 33.3611C393.53 36.4007 390.135 39.9934 386.912 43.7388M382.133 80.6164C381.192 81.5682 380.539 82.5217 380.45 83.4087C380.442 83.4899 383.984 86.7349 384.328 87.1653M386.912 43.7388C386.699 45.7623 386.179 47.7112 385.176 49.4781C383.922 51.6874 380.274 59.252 377.178 59.4149C374.72 59.5443 380.134 51.8685 380.208 51.7806C382.433 49.1181 384.629 46.3902 386.912 43.7388Z" stroke="#1A1A1A" stroke-width="8" stroke-linecap="round"/>
</svg>
